<?xml version="1.0" encoding="UTF-8" standalone="no"?>
<svg
   xmlns:dc="http://purl.org/dc/elements/1.1/"
   xmlns:cc="http://creativecommons.org/ns#"
   xmlns:rdf="http://www.w3.org/1999/02/22-rdf-syntax-ns#"
   xmlns:svg="http://www.w3.org/2000/svg"
   xmlns="http://www.w3.org/2000/svg"
   height="479.14279"
   width="302.38416"
   version="1.1"
   viewBox="0 0 302.38414 479.14278"
   data-name="Layer 1"
   id="Layer_1">
  <metadata
     id="metadata33">
    <rdf:RDF>
      <cc:Work
         rdf:about="">
        <dc:format>image/svg+xml</dc:format>
        <dc:type
           rdf:resource="http://purl.org/dc/dcmitype/StillImage" />
        <dc:title>LUHack Logo [NoByline]</dc:title>
      </cc:Work>
    </rdf:RDF>
  </metadata>
  <defs
     id="defs31" />
  <title
     id="title2">LUHack Logo [NoByline]</title>
  <path
     id="path4"
     style="fill:#b6121b"
     d="m 0,249.90279 a 259,259 0 0 1 9.32,-59 c 1.22,-4.46 3.26,-7.49 7.51,-9.72 q 134.9,-71 269.3,0.78 c 2.34,1.26 4.89,3.84 5.57,6.29 22,80.09 10.67,154.45 -40,221.23 -24.55,32.37 -56.59,55.11 -95.42,67.85 a 35.24,35.24 0 0 0 -3.91,1.81 h -2 c -1.53,-0.62 -3,-1.33 -4.58,-1.83 a 178.74,178.74 0 0 1 -52.28,-26.49 c -60.06,-44.68 -89.14,-105.68 -93.37,-179.53 q -0.07,-10.69 -0.14,-21.39 z m 167.86,49.69 c 0,13.32 -0.13,26.65 0,40 0.16,12 2.44,14.13 14.49,14.4 h 1 c 18.82,0 37.65,0 56.47,0 10.83,0 13.5,-2.77 13.5,-13.71 q 0,-40.49 0,-81 c 0,-2.93 0.56,-4.73 3.46,-6.26 7,-3.7 10.21,-12.12 8,-19.69 a 17.08,17.08 0 0 0 -17.41,-12.19 16.8,16.8 0 0 0 -15.62,13.16 16.59,16.59 0 0 0 9.45,19 c 2.48,1.17 3.38,2.47 3.37,5.19 q -0.13,40.23 0,80.46 c 0,4.81 -1.87,6.32 -6.55,6.27 -18.16,-0.19 -36.31,-0.07 -54.47,-0.09 -6.09,0 -7,-0.82 -7,-6.87 -0.05,-26.48 0,-53 -0.06,-79.46 0,-2.56 0.45,-4.11 3.19,-5.3 8,-3.47 11.48,-10.79 9.81,-19.18 a 16.67,16.67 0 0 0 -15.56,-13.18 c -8,-0.33 -15.2,4.44 -17.44,11.55 -2.46,7.82 0.53,16.34 7.76,20.21 3.11,1.66 3.66,3.65 3.64,6.7 -0.09,13.33 -0.04,26.66 -0.03,39.99 z m -120.49,-11.95 c 0,15 0,30 0,45 0,3.83 0.06,7.67 0.42,11.47 0.41,4.35 2.91,7.38 7.36,7.41 23.13,0.13 46.26,0.14 69.39,-0.11 5.09,-0.05 7.85,-3.51 7.57,-8.67 -0.17,-3.13 0.93,-4.53 3.81,-5.9 a 17,17 0 0 0 5.45,-26.29 c -4.91,-5.66 -11.23,-7.14 -18.14,-5.11 -6.63,1.95 -10.7,6.79 -11.65,13.65 -1,7.5 2,13.41 8.53,17.22 2.41,1.41 4.64,2.77 2.54,5.57 -0.82,1.09 -3.24,1.36 -4.93,1.37 -18.16,0.09 -36.33,0.07 -54.49,0.05 -6.71,0 -7,-0.27 -7,-7.11 0,-33.49 0.05,-67 -0.1,-100.47 0,-3.61 0.88,-5.55 4.25,-7.24 a 16.25,16.25 0 0 0 8.53,-18.94 c -1.95,-7.58 -8.46,-12.5 -16.58,-12.56 -8.12,-0.06 -14.79,4.87 -16.69,12.34 a 16.51,16.51 0 0 0 8.34,19.08 c 2.88,1.51 3.49,3.31 3.47,6.26 -0.14,17.66 -0.08,35.32 -0.08,52.98 z" />
  <path
     id="path6"
     style="fill:#b7b7b7"
     d="m 30.27,130.95279 c -0.87,-15.61 0.64,-34.509997 7.49,-52.859997 17.23,-46.13 62.53,-77.78999953 111.81,-78.08999953 33.72,-0.21 62.77,11.41999953 86.59,34.92999953 21.25,21 33.62,46.65 35.27,76.759997 0.84,15.45 0.52,30.95 0.87,46.43 0.09,4 -0.91,4.69 -4.9,3.34 -17.16,-5.82 -34.43,-11.32 -51.73,-16.71 -3.05,-0.95 -4.45,-2.18 -4.35,-5.47 0.2,-6 0.06,-12 0.05,-18 A 60.92,60.92 0 0 0 151.72,60.392793 c -29.25,-0.69 -56.3,22.22 -60.19,51.599997 -1.16,8.7 -1,17.6 -1,26.41 0,3.81 -1.27,5.41 -5,6.56 q -25.5,7.85 -50.77,16.46 c -3.92,1.33 -4.63,0.27 -4.57,-3.32 0.18,-7.81 0.08,-15.64 0.08,-27.15 z" />
  <path
     id="path8"
     style="fill:#fdfdfd"
     d="m 167.86,299.59279 c 0,-13.33 -0.06,-26.66 0,-40 0,-3.05 -0.53,-5 -3.64,-6.7 -7.23,-3.87 -10.22,-12.39 -7.76,-20.21 2.24,-7.11 9.44,-11.88 17.44,-11.55 a 16.67,16.67 0 0 1 15.57,13.17 c 1.67,8.39 -1.85,15.71 -9.81,19.18 -2.74,1.19 -3.2,2.74 -3.19,5.3 0.06,26.49 0,53 0.06,79.46 0,6.05 0.92,6.87 7,6.87 18.16,0 36.31,-0.1 54.47,0.09 4.68,0.05 6.57,-1.46 6.55,-6.27 q -0.19,-40.23 0,-80.46 c 0,-2.72 -0.89,-4 -3.37,-5.19 a 16.59,16.59 0 0 1 -9.45,-19 16.8,16.8 0 0 1 15.64,-13.14 17.08,17.08 0 0 1 17.43,12.18 c 2.17,7.57 -1,16 -8,19.69 -2.9,1.53 -3.47,3.33 -3.46,6.26 q 0.13,40.49 0,81 c 0,10.94 -2.67,13.68 -13.5,13.71 -18.82,0 -37.65,0 -56.47,0 h -1 c -12,-0.27 -14.33,-2.39 -14.49,-14.4 -0.15,-13.34 -0.02,-26.67 -0.02,-39.99 z m 4.89,-69.8 a 8.58,8.58 0 0 0 -8.34,8.24 c -0.07,4.47 4.1,8.4 8.76,8.25 a 8.25,8.25 0 0 0 -0.42,-16.49 z m 75.62,16.48 a 8,8 0 0 0 8.12,-8.19 8.13,8.13 0 1 0 -16.26,0 8,8 0 0 0 8.14,8.19 z" />
  <path
     id="path10"
     style="fill:#fdfdfd"
     d="m 47.37,287.64279 c 0,-17.66 -0.06,-35.32 0.06,-53 0,-2.95 -0.59,-4.75 -3.47,-6.26 a 16.51,16.51 0 0 1 -8.34,-19.08 c 1.9,-7.47 8.55,-12.4 16.69,-12.34 8.14,0.06 14.63,5 16.58,12.56 a 16.25,16.25 0 0 1 -8.52,18.96 c -3.37,1.69 -4.26,3.63 -4.25,7.24 0.15,33.49 0.09,67 0.1,100.47 0,6.84 0.27,7.11 7,7.11 18.16,0 36.33,0 54.49,-0.05 1.69,0 4.11,-0.28 4.93,-1.37 2.1,-2.8 -0.13,-4.16 -2.54,-5.57 -6.55,-3.81 -9.56,-9.72 -8.53,-17.22 0.95,-6.86 5,-11.7 11.65,-13.65 6.91,-2 13.23,-0.55 18.14,5.11 a 17,17 0 0 1 -5.39,26.28 c -2.88,1.37 -4,2.77 -3.81,5.9 0.28,5.16 -2.48,8.62 -7.57,8.67 -23.13,0.25 -46.26,0.24 -69.39,0.11 -4.45,0 -6.95,-3.06 -7.36,-7.41 -0.36,-3.8 -0.41,-7.64 -0.42,-11.47 -0.05,-15 -0.05,-29.99 -0.05,-44.99 z m 4.77,-65.5 a 8.54,8.54 0 0 0 8.36,-8.22 8.3,8.3 0 1 0 -8.36,8.22 z m 85.23,99.18 a 8.33,8.33 0 0 0 -8.29,-8.17 8.55,8.55 0 0 0 -8.46,8.6 8.36,8.36 0 0 0 8.62,7.86 8.25,8.25 0 0 0 8.13,-8.29 z" />
  <path
     id="path20"
     style="fill:#b6121b"
     d="m 172.75,229.79279 a 8.25,8.25 0 0 1 0.42,16.49 c -4.66,0.15 -8.83,-3.78 -8.76,-8.25 a 8.58,8.58 0 0 1 8.34,-8.24 z" />
  <path
     id="path22"
     style="fill:#b6121b"
     d="m 248.37,246.27279 a 8,8 0 0 1 -8.14,-8.2 8.13,8.13 0 1 1 16.26,0 8,8 0 0 1 -8.12,8.2 z" />
  <path
     id="path24"
     style="fill:#b6121b"
     d="m 52.14,222.14279 a 8.45,8.45 0 1 1 8.36,-8.22 8.54,8.54 0 0 1 -8.36,8.22 z" />
  <path
     id="path26"
     style="fill:#b6121b"
     d="m 137.37,321.32279 a 8.25,8.25 0 0 1 -8.13,8.29 8.36,8.36 0 0 1 -8.62,-7.86 8.55,8.55 0 0 1 8.46,-8.6 8.33,8.33 0 0 1 8.29,8.17 z" />
</svg>
