<?xml version="1.0" encoding="UTF-8" standalone="no"?>
<svg
   xmlns:dc="http://purl.org/dc/elements/1.1/"
   xmlns:cc="http://creativecommons.org/ns#"
   xmlns:rdf="http://www.w3.org/1999/02/22-rdf-syntax-ns#"
   xmlns:svg="http://www.w3.org/2000/svg"
   xmlns="http://www.w3.org/2000/svg"
   viewBox="0 0 1059.0059 672.15863"
   height="672.15863"
   width="1059.0059"
   xml:space="preserve"
   id="svg2"
   version="1.1"><metadata
     id="metadata8"><rdf:RDF><cc:Work
         rdf:about=""><dc:format>image/svg+xml</dc:format><dc:type
           rdf:resource="http://purl.org/dc/dcmitype/StillImage" /><dc:title></dc:title></cc:Work></rdf:RDF></metadata><defs
     id="defs6"><clipPath
       id="clipPath18"
       clipPathUnits="userSpaceOnUse"><path
         id="path16"
         d="M 0,768 H 1366 V 0 H 0 Z" /></clipPath></defs><g
     transform="matrix(1.3333333,0,0,-1.3333333,-363.14589,846.17595)"
     id="g10"><g
   transform="translate(8.2176667,5e-4)"
   style="fill:none;stroke:#ffffff;stroke-width:24.97500038;stroke-miterlimit:4;stroke-dasharray:none;stroke-opacity:1"
   id="g5220"><g
     style="fill:none;stroke:#ffffff;stroke-width:24.97500038;stroke-miterlimit:4;stroke-dasharray:none;stroke-opacity:1"
     id="g5218"
     clip-path="url(#clipPath18)"><g
       style="fill:none;stroke:#ffffff;stroke-width:24.97500038;stroke-miterlimit:4;stroke-dasharray:none;stroke-opacity:1"
       id="g5172"
       transform="translate(324,334.498)"><path
         d="m 0,0 c 0,-14.996 -0.026,-29.993 0.018,-44.989 0.011,-3.824 0.064,-7.665 0.422,-11.467 0.411,-4.348 2.913,-7.382 7.36,-7.407 23.13,-0.131 46.262,-0.147 69.39,0.102 5.086,0.055 7.854,3.516 7.573,8.677 -0.171,3.125 0.93,4.528 3.808,5.894 10.007,4.745 12.583,18.001 5.392,26.283 -4.915,5.661 -11.234,7.139 -18.143,5.107 -6.631,-1.951 -10.699,-6.788 -11.645,-13.652 -1.034,-7.501 1.97,-13.409 8.523,-17.22 2.41,-1.401 4.644,-2.764 2.542,-5.564 -0.821,-1.094 -3.238,-1.362 -4.931,-1.369 -18.163,-0.094 -36.325,-0.07 -54.487,-0.055 -6.712,0.005 -6.982,0.273 -6.984,7.107 -0.012,33.491 0.056,66.984 -0.094,100.475 -0.016,3.607 0.875,5.546 4.242,7.24 7.295,3.671 10.479,11.39 8.532,18.945 -1.952,7.572 -8.458,12.498 -16.582,12.555 -8.133,0.057 -14.79,-4.866 -16.686,-12.338 -1.933,-7.616 1.196,-15.331 8.335,-19.08 2.887,-1.516 3.492,-3.31 3.473,-6.258 C -0.059,35.325 0,17.662 0,0 m 120.494,-11.945 c 0,-13.327 -0.135,-26.657 0.039,-39.982 0.157,-12.013 2.439,-14.127 14.485,-14.399 0.333,-0.008 0.666,-0.004 0.999,-0.004 18.825,0 37.65,-0.033 56.474,0.013 10.829,0.026 13.496,2.766 13.503,13.713 0.017,26.989 0.044,53.976 -0.048,80.963 -0.01,2.934 0.564,4.734 3.463,6.262 7.025,3.705 10.213,12.124 8.046,19.69 -2.162,7.548 -9.256,12.506 -17.434,12.183 -7.506,-0.297 -13.926,-5.706 -15.622,-13.163 -1.763,-7.749 1.876,-15.406 9.453,-18.987 2.481,-1.173 3.379,-2.469 3.37,-5.19 -0.097,-26.821 -0.129,-53.642 -0.002,-80.463 0.023,-4.812 -1.867,-6.317 -6.549,-6.267 -18.156,0.192 -36.316,0.067 -54.474,0.084 -6.087,0.006 -7,0.822 -7.01,6.87 -0.046,26.488 10e-4,52.976 -0.058,79.464 -0.005,2.558 0.454,4.107 3.19,5.3 7.958,3.469 11.483,10.791 9.812,19.179 -1.456,7.312 -8.018,12.864 -15.569,13.172 -8.001,0.327 -15.203,-4.442 -17.438,-11.549 -2.461,-7.822 0.522,-16.34 7.76,-20.208 3.107,-1.66 3.661,-3.658 3.639,-6.7 -0.096,-13.327 -0.041,-26.654 -0.029,-39.981 M -47.371,37.737 c 0.745,20.054 4.023,39.692 9.322,59.041 1.223,4.468 3.258,7.492 7.508,9.728 89.932,47.315 179.699,47.242 269.296,-0.782 2.35,-1.26 4.898,-3.839 5.571,-6.292 21.989,-80.087 10.673,-154.448 -39.971,-221.233 -24.541,-32.363 -56.585,-55.105 -95.419,-67.845 -1.368,-0.448 -2.626,-1.227 -3.936,-1.852 h -2 c -1.525,0.615 -3.019,1.328 -4.58,1.832 -18.823,6.079 -36.439,14.684 -52.283,26.485 -60.055,44.736 -89.116,105.711 -93.368,179.529 -0.047,7.13 -0.094,14.259 -0.14,21.389"
         style="fill:none;fill-opacity:1;fill-rule:nonzero;stroke:#ffffff;stroke-width:24.97500038;stroke-miterlimit:4;stroke-dasharray:none;stroke-opacity:1"
         id="path5170" /></g><g
       style="fill:none;stroke:#ffffff;stroke-width:24.97500038;stroke-miterlimit:4;stroke-dasharray:none;stroke-opacity:1"
       id="g5176"
       transform="translate(306.9004,491.1904)"><path
         d="m 0,0 c -0.87,15.612 0.638,34.513 7.49,52.858 17.231,46.135 62.526,77.792 111.81,78.093 33.718,0.206 62.768,-11.424 86.59,-34.927 21.246,-20.962 33.62,-46.651 35.265,-76.766 0.845,-15.445 0.53,-30.953 0.878,-46.429 0.092,-4.04 -0.918,-4.688 -4.9,-3.338 -17.161,5.819 -34.432,11.324 -51.736,16.711 -3.048,0.949 -4.452,2.175 -4.345,5.467 0.193,5.991 0.061,11.992 0.046,17.988 -0.082,33.222 -26.42,60.108 -59.647,60.894 C 92.195,71.243 65.149,48.325 61.255,18.948 60.102,10.25 60.314,1.347 60.291,-7.464 60.28,-11.275 59.023,-12.872 55.3,-14.019 38.299,-19.252 21.376,-24.755 4.534,-30.48 0.605,-31.815 -0.1,-30.751 -0.04,-27.164 0.089,-19.337 0,-11.507 0,0"
         style="fill:none;fill-opacity:1;fill-rule:nonzero;stroke:#ffffff;stroke-width:24.97500038;stroke-miterlimit:4;stroke-dasharray:none;stroke-opacity:1"
         id="path5174" /></g><g
       style="fill:none;stroke:#ffffff;stroke-width:24.97500038;stroke-miterlimit:4;stroke-dasharray:none;stroke-opacity:1"
       id="g5180"
       transform="translate(525.0176,375.8672)"><path
         d="M 0,0 C 4.606,0.012 8.133,3.57 8.124,8.197 8.114,12.698 4.396,16.518 0.007,16.535 -4.401,16.552 -8.111,12.759 -8.137,8.207 -8.164,3.592 -4.59,-0.012 0,0 m -75.642,16.486 c -4.454,-0.067 -8.27,-3.839 -8.337,-8.239 -0.069,-4.476 4.1,-8.402 8.761,-8.253 4.506,0.145 8.146,3.982 8.004,8.436 -0.145,4.511 -3.924,8.124 -8.428,8.056 m -4.888,-69.8 c -0.006,13.327 -0.06,26.654 0.035,39.981 0.022,3.042 -0.531,5.04 -3.638,6.7 -7.239,3.868 -10.222,12.386 -7.761,20.208 2.236,7.107 9.437,11.876 17.438,11.549 7.552,-0.309 14.114,-5.86 15.57,-13.172 1.671,-8.389 -1.854,-15.71 -9.812,-19.18 -2.736,-1.192 -3.196,-2.741 -3.191,-5.299 0.06,-26.488 0.013,-52.976 0.058,-79.464 0.011,-6.048 0.923,-6.864 7.011,-6.87 18.158,-0.017 36.318,0.108 54.474,-0.084 4.681,-0.05 6.571,1.455 6.549,6.267 -0.128,26.821 -0.095,53.642 0.001,80.463 0.01,2.721 -0.889,4.017 -3.37,5.19 -7.577,3.581 -11.215,11.238 -9.453,18.987 1.696,7.456 8.117,12.866 15.623,13.163 C 7.181,25.448 14.276,20.49 16.437,12.942 18.604,5.376 15.416,-3.043 8.391,-6.748 5.492,-8.276 4.918,-10.076 4.929,-13.01 5.02,-39.997 4.993,-66.984 4.977,-93.973 4.97,-104.92 2.303,-107.66 -8.526,-107.687 c -18.825,-0.045 -37.65,-0.012 -56.474,-0.012 -0.333,0 -0.667,-0.004 -1,0.004 -12.045,0.272 -14.328,2.385 -14.484,14.399 -0.174,13.325 -0.04,26.654 -0.046,39.982"
         style="fill:none;fill-opacity:1;fill-rule:nonzero;stroke:#ffffff;stroke-width:24.97500038;stroke-miterlimit:4;stroke-dasharray:none;stroke-opacity:1"
         id="path5178" /></g><g
       style="fill:none;stroke:#ffffff;stroke-width:24.97500038;stroke-miterlimit:4;stroke-dasharray:none;stroke-opacity:1"
       id="g5184"
       transform="translate(413.9746,300.8184)"><path
         d="m 0,0 c -0.109,4.545 -3.793,8.174 -8.297,8.171 -4.655,-0.002 -8.636,-4.051 -8.457,-8.599 0.174,-4.435 4.02,-7.946 8.615,-7.864 C -3.593,-8.212 0.107,-4.441 0,0 m -85.202,99.226 c 4.437,0.002 8.285,3.783 8.362,8.216 0.081,4.607 -3.985,8.765 -8.488,8.681 -4.313,-0.08 -8.15,-4.116 -8.104,-8.522 0.046,-4.441 3.915,-8.378 8.23,-8.375 M -89.975,33.68 c 0,17.662 -0.059,35.325 0.058,52.986 0.019,2.947 -0.585,4.742 -3.472,6.257 -7.139,3.749 -10.268,11.465 -8.336,19.081 1.896,7.472 8.554,12.394 16.686,12.337 8.124,-0.056 14.631,-4.983 16.582,-12.554 1.947,-7.556 -1.236,-15.274 -8.532,-18.945 -3.366,-1.694 -4.258,-3.634 -4.242,-7.24 0.15,-33.492 0.083,-66.984 0.094,-100.475 0.003,-6.834 0.272,-7.103 6.984,-7.107 18.163,-0.015 36.325,-0.04 54.487,0.054 1.693,0.008 4.111,0.276 4.932,1.369 2.101,2.801 -0.132,4.163 -2.543,5.565 -6.553,3.81 -9.557,9.719 -8.523,17.22 0.946,6.864 5.015,11.701 11.646,13.652 6.909,2.032 13.227,0.554 18.142,-5.108 7.192,-8.282 4.615,-21.538 -5.391,-26.283 -2.879,-1.365 -3.98,-2.768 -3.809,-5.893 0.282,-5.161 -2.486,-8.622 -7.573,-8.677 -23.128,-0.249 -46.26,-0.233 -69.39,-0.103 -4.447,0.026 -6.949,3.06 -7.359,7.408 -0.359,3.801 -0.411,7.642 -0.423,11.466 -0.043,14.997 -0.018,29.994 -0.018,44.99"
         style="fill:none;fill-opacity:1;fill-rule:nonzero;stroke:#ffffff;stroke-width:24.97500038;stroke-miterlimit:4;stroke-dasharray:none;stroke-opacity:1"
         id="path5182" /></g><g
       style="fill:none;stroke:#ffffff;stroke-width:24.97500038;stroke-miterlimit:4;stroke-dasharray:none;stroke-opacity:1"
       id="g5188"
       transform="translate(766.4365,360.1406)"><path
         d="m 0,0 c -4.65,0 -9.303,-0.087 -13.95,0.028 -3.554,0.089 -5.238,-1.461 -5.212,-5.016 0.039,-5.315 0.067,-10.63 -0.014,-15.944 -0.054,-3.506 1.458,-5.242 5.036,-5.227 9.466,0.039 18.934,0.024 28.401,0.008 3.237,-0.006 4.944,1.406 4.907,4.797 -0.06,5.48 -0.075,10.962 0.01,16.442 0.056,3.658 -1.727,5.027 -5.227,4.94 C 9.303,-0.086 4.65,0.001 0,0 m -48.999,-36.104 c -10e-4,15.658 -0.021,31.315 0.006,46.972 0.019,11.675 6.264,17.957 17.855,17.967 20.822,0.019 41.643,0.023 62.463,-0.002 10.785,-0.013 17.6,-6.542 17.635,-17.332 0.103,-32.147 0.053,-64.295 0.026,-96.442 -0.005,-5.413 -1.405,-6.806 -6.763,-6.872 -5.496,-0.068 -10.996,0.087 -16.49,-0.044 -4.482,-0.108 -6.329,1.965 -6.273,6.35 0.101,7.993 -0.081,15.991 0.065,23.985 0.059,3.229 -0.657,4.836 -4.375,4.76 -10.323,-0.21 -20.654,-0.154 -30.979,-0.024 -2.995,0.038 -4.112,-0.916 -4.054,-3.995 0.159,-8.326 -0.051,-16.658 0.089,-24.984 0.072,-4.262 -1.815,-6.115 -5.97,-6.074 -5.496,0.055 -10.994,-0.032 -16.49,0.023 -5.619,0.056 -6.723,1.145 -6.733,6.742 -0.033,16.323 -0.012,32.647 -0.012,48.97"
         style="fill:none;fill-opacity:1;fill-rule:nonzero;stroke:#ffffff;stroke-width:24.97500038;stroke-miterlimit:4;stroke-dasharray:none;stroke-opacity:1"
         id="path5186" /></g><g
       style="fill:none;stroke:#ffffff;stroke-width:24.97500038;stroke-miterlimit:4;stroke-dasharray:none;stroke-opacity:1"
       id="g5192"
       transform="translate(829.9248,328.6982)"><path
         d="m 0,0 c -0.006,13.826 -0.062,27.653 0.011,41.479 0.066,12.503 6.31,18.692 18.825,18.715 20.322,0.038 40.645,0.048 60.968,-0.003 11.691,-0.028 18.3,-6.496 18.514,-18.146 0.135,-7.327 -0.097,-14.661 0.073,-21.987 0.106,-4.592 -2.106,-6.28 -6.388,-6.221 -5.496,0.074 -10.995,0.073 -16.491,-0.002 -4.296,-0.058 -6.685,1.589 -6.18,6.238 0.107,0.988 0.017,1.997 0.013,2.996 -0.031,7.276 -0.796,8.07 -7.989,8.087 -8.495,0.021 -16.993,-0.12 -25.485,0.052 -4.554,0.092 -6.656,-1.4 -6.597,-6.332 0.201,-16.656 0.193,-33.316 0.002,-49.973 -0.055,-4.831 1.747,-6.441 6.488,-6.299 9.153,0.275 18.323,0.213 27.481,0.022 4.222,-0.088 6.3,1.441 6.1,5.758 -0.622,13.425 1.194,11.137 11.978,11.291 3.83,0.054 7.663,-0.05 11.493,0.021 3.233,0.06 5.152,-1.308 5.16,-4.641 0.02,-8.993 0.329,-18.009 -0.198,-26.974 C 97.282,-54.361 90.554,-60.25 82.084,-60.284 60.096,-60.373 38.106,-60.375 16.118,-60.286 6.676,-60.248 0.186,-53.33 0.053,-42.977 -0.131,-28.653 0.007,-14.325 0,0"
         style="fill:none;fill-opacity:1;fill-rule:nonzero;stroke:#ffffff;stroke-width:24.97500038;stroke-miterlimit:4;stroke-dasharray:none;stroke-opacity:1"
         id="path5190" /></g><g
       style="fill:none;stroke:#ffffff;stroke-width:24.97500038;stroke-miterlimit:4;stroke-dasharray:none;stroke-opacity:1"
       id="g5196"
       transform="translate(605.4375,328.6387)"><path
         d="m 0,0 c 0,17.992 0.109,35.985 -0.074,53.977 -0.048,4.736 1.58,6.701 6.382,6.472 5.318,-0.254 10.671,-0.273 15.987,0.006 4.839,0.254 6.6,-1.903 6.564,-6.48 -0.089,-11.329 0.118,-22.661 -0.104,-33.985 -0.076,-3.869 1.028,-5.252 5.025,-5.154 9.99,0.244 19.992,0.215 29.984,0.013 3.834,-0.078 5.242,1.045 5.153,5.072 -0.247,11.323 0.044,22.657 -0.146,33.982 -0.077,4.646 1.496,6.771 6.362,6.549 5.653,-0.259 11.328,-0.149 16.99,-0.034 3.844,0.079 5.408,-1.702 5.405,-5.436 -0.032,-36.65 -0.033,-73.301 0,-109.953 0.003,-3.827 -1.916,-5.452 -5.533,-5.461 -5.664,-0.014 -11.33,0.068 -16.992,-0.033 -4.378,-0.077 -6.302,1.725 -6.23,6.286 0.184,11.658 -0.089,23.325 0.141,34.983 0.077,3.941 -1.172,5.218 -5.093,5.134 -10.157,-0.218 -20.324,-0.185 -30.484,-0.014 -3.459,0.057 -4.624,-1.071 -4.568,-4.574 0.18,-11.493 0.096,-22.989 0.05,-34.484 -0.023,-6.048 -1.284,-7.261 -7.373,-7.304 -4.998,-0.034 -9.999,0.11 -14.992,-0.037 -4.609,-0.136 -6.574,1.672 -6.525,6.498 C 0.108,-35.985 0,-17.992 0,0"
         style="fill:none;fill-opacity:1;fill-rule:nonzero;stroke:#ffffff;stroke-width:24.97500038;stroke-miterlimit:4;stroke-dasharray:none;stroke-opacity:1"
         id="path5194" /></g><g
       style="fill:none;stroke:#ffffff;stroke-width:24.97500038;stroke-miterlimit:4;stroke-dasharray:none;stroke-opacity:1"
       id="g5200"
       transform="translate(942.9189,329.1289)"><path
         d="m 0,0 c -0.002,17.32 -0.02,34.642 0.008,51.963 0.011,6.885 0.971,7.821 7.764,7.847 4.998,0.019 9.995,-0.068 14.99,0.021 4.146,0.074 6.034,-1.627 5.975,-5.972 -0.158,-11.656 0.083,-23.318 -0.129,-34.972 -0.068,-3.73 1.068,-4.93 4.812,-4.818 8.319,0.249 16.656,0.224 24.977,0.007 3.313,-0.087 4.6,1.128 5.419,4.263 3.068,11.747 6.614,23.37 9.617,35.133 1.182,4.632 3.236,6.82 8.261,6.43 5.133,-0.399 10.323,-0.196 15.482,-0.06 4.097,0.109 5.897,-1.742 5.491,-5.741 -0.283,-2.794 -0.4,-5.659 -1.127,-8.346 -3.777,-13.97 -7.859,-27.858 -11.505,-41.859 -0.748,-2.872 -0.72,-6.275 0.03,-9.151 3.65,-14.002 7.666,-27.908 11.55,-41.849 0.313,-1.121 0.701,-2.232 0.885,-3.375 1.414,-8.828 0.095,-10.373 -8.779,-10.377 -4.163,-0.002 -8.339,0.194 -12.488,-0.052 -4.412,-0.263 -6.655,1.511 -7.778,5.834 -3.138,12.072 -6.722,24.028 -9.879,36.095 -0.866,3.308 -2.279,4.62 -5.795,4.509 -7.82,-0.246 -15.661,-0.281 -23.477,0.008 -4.253,0.156 -5.853,-0.976 -5.725,-5.539 0.321,-11.482 -0.048,-22.983 0.177,-34.471 0.096,-4.875 -1.985,-6.565 -6.565,-6.42 -5.158,0.163 -10.326,-0.012 -15.488,0.05 -5.499,0.069 -6.664,1.202 -6.681,6.88 C -0.031,-35.976 0.002,-17.987 0,0"
         style="fill:none;fill-opacity:1;fill-rule:nonzero;stroke:#ffffff;stroke-width:24.97500038;stroke-miterlimit:4;stroke-dasharray:none;stroke-opacity:1"
         id="path5198" /></g><g
       style="fill:none;stroke:#ffffff;stroke-width:24.97500038;stroke-miterlimit:4;stroke-dasharray:none;stroke-opacity:1"
       id="g5204"
       transform="translate(449.3755,392.3535)"><path
         d="m 0,0 c 4.504,0.068 8.283,-3.545 8.428,-8.057 0.142,-4.454 -3.498,-8.291 -8.004,-8.435 -4.661,-0.15 -8.83,3.777 -8.761,8.252 C -8.27,-3.839 -4.454,-0.067 0,0"
         style="fill:none;fill-opacity:1;fill-rule:nonzero;stroke:#ffffff;stroke-width:24.97500038;stroke-miterlimit:4;stroke-dasharray:none;stroke-opacity:1"
         id="path5202" /></g><g
       style="fill:none;stroke:#ffffff;stroke-width:24.97500038;stroke-miterlimit:4;stroke-dasharray:none;stroke-opacity:1"
       id="g5208"
       transform="translate(525.0176,375.8672)"><path
         d="m 0,0 c -4.59,-0.012 -8.164,3.592 -8.137,8.207 0.026,4.552 3.736,8.345 8.144,8.328 C 4.396,16.518 8.114,12.698 8.124,8.197 8.133,3.57 4.606,0.012 0,0"
         style="fill:none;fill-opacity:1;fill-rule:nonzero;stroke:#ffffff;stroke-width:24.97500038;stroke-miterlimit:4;stroke-dasharray:none;stroke-opacity:1"
         id="path5206" /></g><g
       style="fill:none;stroke:#ffffff;stroke-width:24.97500038;stroke-miterlimit:4;stroke-dasharray:none;stroke-opacity:1"
       id="g5212"
       transform="translate(328.7729,400.0439)"><path
         d="m 0,0 c -4.315,-0.002 -8.184,3.935 -8.23,8.375 -0.046,4.407 3.791,8.442 8.104,8.522 C 4.376,16.981 8.442,12.823 8.362,8.216 8.285,3.783 4.437,0.002 0,0"
         style="fill:none;fill-opacity:1;fill-rule:nonzero;stroke:#ffffff;stroke-width:24.97500038;stroke-miterlimit:4;stroke-dasharray:none;stroke-opacity:1"
         id="path5210" /></g><g
       style="fill:none;stroke:#ffffff;stroke-width:24.97500038;stroke-miterlimit:4;stroke-dasharray:none;stroke-opacity:1"
       id="g5216"
       transform="translate(413.9746,300.8184)"><path
         d="m 0,0 c 0.107,-4.441 -3.593,-8.212 -8.139,-8.292 -4.595,-0.082 -8.441,3.429 -8.615,7.864 -0.179,4.548 3.802,8.597 8.457,8.599 C -3.793,8.174 -0.109,4.545 0,0"
         style="fill:none;fill-opacity:1;fill-rule:nonzero;stroke:#ffffff;stroke-width:24.97500038;stroke-miterlimit:4;stroke-dasharray:none;stroke-opacity:1"
         id="path5214" /></g></g></g><g
   transform="translate(8.2179667)"
   id="g12"><g
     clip-path="url(#clipPath18)"
     id="g14"><g
       transform="translate(324,334.498)"
       id="g20"><path
         id="path22"
         style="fill:#b5121b;fill-opacity:1;fill-rule:nonzero;stroke:none"
         d="m 0,0 c 0,-14.996 -0.026,-29.993 0.018,-44.989 0.011,-3.824 0.064,-7.665 0.422,-11.467 0.411,-4.348 2.913,-7.382 7.36,-7.407 23.13,-0.131 46.262,-0.147 69.39,0.102 5.086,0.055 7.854,3.516 7.573,8.677 -0.171,3.125 0.93,4.528 3.808,5.894 10.007,4.745 12.583,18.001 5.392,26.283 -4.915,5.661 -11.234,7.139 -18.143,5.107 -6.631,-1.951 -10.699,-6.788 -11.645,-13.652 -1.034,-7.501 1.97,-13.409 8.523,-17.22 2.41,-1.401 4.644,-2.764 2.542,-5.564 -0.821,-1.094 -3.238,-1.362 -4.931,-1.369 -18.163,-0.094 -36.325,-0.07 -54.487,-0.055 -6.712,0.005 -6.982,0.273 -6.984,7.107 -0.012,33.491 0.056,66.984 -0.094,100.475 -0.016,3.607 0.875,5.546 4.242,7.24 7.295,3.671 10.479,11.39 8.532,18.945 -1.952,7.572 -8.458,12.498 -16.582,12.555 -8.133,0.057 -14.79,-4.866 -16.686,-12.338 -1.933,-7.616 1.196,-15.331 8.335,-19.08 2.887,-1.516 3.492,-3.31 3.473,-6.258 C -0.059,35.325 0,17.662 0,0 m 120.494,-11.945 c 0,-13.327 -0.135,-26.657 0.039,-39.982 0.157,-12.013 2.439,-14.127 14.485,-14.399 0.333,-0.008 0.666,-0.004 0.999,-0.004 18.825,0 37.65,-0.033 56.474,0.013 10.829,0.026 13.496,2.766 13.503,13.713 0.017,26.989 0.044,53.976 -0.048,80.963 -0.01,2.934 0.564,4.734 3.463,6.262 7.025,3.705 10.213,12.124 8.046,19.69 -2.162,7.548 -9.256,12.506 -17.434,12.183 -7.506,-0.297 -13.926,-5.706 -15.622,-13.163 -1.763,-7.749 1.876,-15.406 9.453,-18.987 2.481,-1.173 3.379,-2.469 3.37,-5.19 -0.097,-26.821 -0.129,-53.642 -0.002,-80.463 0.023,-4.812 -1.867,-6.317 -6.549,-6.267 -18.156,0.192 -36.316,0.067 -54.474,0.084 -6.087,0.006 -7,0.822 -7.01,6.87 -0.046,26.488 10e-4,52.976 -0.058,79.464 -0.005,2.558 0.454,4.107 3.19,5.3 7.958,3.469 11.483,10.791 9.812,19.179 -1.456,7.312 -8.018,12.864 -15.569,13.172 -8.001,0.327 -15.203,-4.442 -17.438,-11.549 -2.461,-7.822 0.522,-16.34 7.76,-20.208 3.107,-1.66 3.661,-3.658 3.639,-6.7 -0.096,-13.327 -0.041,-26.654 -0.029,-39.981 M -47.371,37.737 c 0.745,20.054 4.023,39.692 9.322,59.041 1.223,4.468 3.258,7.492 7.508,9.728 89.932,47.315 179.699,47.242 269.296,-0.782 2.35,-1.26 4.898,-3.839 5.571,-6.292 21.989,-80.087 10.673,-154.448 -39.971,-221.233 -24.541,-32.363 -56.585,-55.105 -95.419,-67.845 -1.368,-0.448 -2.626,-1.227 -3.936,-1.852 h -2 c -1.525,0.615 -3.019,1.328 -4.58,1.832 -18.823,6.079 -36.439,14.684 -52.283,26.485 -60.055,44.736 -89.116,105.711 -93.368,179.529 -0.047,7.13 -0.094,14.259 -0.14,21.389" /></g><g
       transform="translate(306.9004,491.1904)"
       id="g24"><path
         id="path26"
         style="fill:#b7b7b7;fill-opacity:1;fill-rule:nonzero;stroke:none"
         d="m 0,0 c -0.87,15.612 0.638,34.513 7.49,52.858 17.231,46.135 62.526,77.792 111.81,78.093 33.718,0.206 62.768,-11.424 86.59,-34.927 21.246,-20.962 33.62,-46.651 35.265,-76.766 0.845,-15.445 0.53,-30.953 0.878,-46.429 0.092,-4.04 -0.918,-4.688 -4.9,-3.338 -17.161,5.819 -34.432,11.324 -51.736,16.711 -3.048,0.949 -4.452,2.175 -4.345,5.467 0.193,5.991 0.061,11.992 0.046,17.988 -0.082,33.222 -26.42,60.108 -59.647,60.894 C 92.195,71.243 65.149,48.325 61.255,18.948 60.102,10.25 60.314,1.347 60.291,-7.464 60.28,-11.275 59.023,-12.872 55.3,-14.019 38.299,-19.252 21.376,-24.755 4.534,-30.48 0.605,-31.815 -0.1,-30.751 -0.04,-27.164 0.089,-19.337 0,-11.507 0,0" /></g><g
       transform="translate(525.0176,375.8672)"
       id="g28"><path
         id="path30"
         style="fill:#fdfdfd;fill-opacity:1;fill-rule:nonzero;stroke:none"
         d="M 0,0 C 4.606,0.012 8.133,3.57 8.124,8.197 8.114,12.698 4.396,16.518 0.007,16.535 -4.401,16.552 -8.111,12.759 -8.137,8.207 -8.164,3.592 -4.59,-0.012 0,0 m -75.642,16.486 c -4.454,-0.067 -8.27,-3.839 -8.337,-8.239 -0.069,-4.476 4.1,-8.402 8.761,-8.253 4.506,0.145 8.146,3.982 8.004,8.436 -0.145,4.511 -3.924,8.124 -8.428,8.056 m -4.888,-69.8 c -0.006,13.327 -0.06,26.654 0.035,39.981 0.022,3.042 -0.531,5.04 -3.638,6.7 -7.239,3.868 -10.222,12.386 -7.761,20.208 2.236,7.107 9.437,11.876 17.438,11.549 7.552,-0.309 14.114,-5.86 15.57,-13.172 1.671,-8.389 -1.854,-15.71 -9.812,-19.18 -2.736,-1.192 -3.196,-2.741 -3.191,-5.299 0.06,-26.488 0.013,-52.976 0.058,-79.464 0.011,-6.048 0.923,-6.864 7.011,-6.87 18.158,-0.017 36.318,0.108 54.474,-0.084 4.681,-0.05 6.571,1.455 6.549,6.267 -0.128,26.821 -0.095,53.642 0.001,80.463 0.01,2.721 -0.889,4.017 -3.37,5.19 -7.577,3.581 -11.215,11.238 -9.453,18.987 1.696,7.456 8.117,12.866 15.623,13.163 C 7.181,25.448 14.276,20.49 16.437,12.942 18.604,5.376 15.416,-3.043 8.391,-6.748 5.492,-8.276 4.918,-10.076 4.929,-13.01 5.02,-39.997 4.993,-66.984 4.977,-93.973 4.97,-104.92 2.303,-107.66 -8.526,-107.687 c -18.825,-0.045 -37.65,-0.012 -56.474,-0.012 -0.333,0 -0.667,-0.004 -1,0.004 -12.045,0.272 -14.328,2.385 -14.484,14.399 -0.174,13.325 -0.04,26.654 -0.046,39.982" /></g><g
       transform="translate(413.9746,300.8184)"
       id="g32"><path
         id="path34"
         style="fill:#fdfdfd;fill-opacity:1;fill-rule:nonzero;stroke:none"
         d="m 0,0 c -0.109,4.545 -3.793,8.174 -8.297,8.171 -4.655,-0.002 -8.636,-4.051 -8.457,-8.599 0.174,-4.435 4.02,-7.946 8.615,-7.864 C -3.593,-8.212 0.107,-4.441 0,0 m -85.202,99.226 c 4.437,0.002 8.285,3.783 8.362,8.216 0.081,4.607 -3.985,8.765 -8.488,8.681 -4.313,-0.08 -8.15,-4.116 -8.104,-8.522 0.046,-4.441 3.915,-8.378 8.23,-8.375 M -89.975,33.68 c 0,17.662 -0.059,35.325 0.058,52.986 0.019,2.947 -0.585,4.742 -3.472,6.257 -7.139,3.749 -10.268,11.465 -8.336,19.081 1.896,7.472 8.554,12.394 16.686,12.337 8.124,-0.056 14.631,-4.983 16.582,-12.554 1.947,-7.556 -1.236,-15.274 -8.532,-18.945 -3.366,-1.694 -4.258,-3.634 -4.242,-7.24 0.15,-33.492 0.083,-66.984 0.094,-100.475 0.003,-6.834 0.272,-7.103 6.984,-7.107 18.163,-0.015 36.325,-0.04 54.487,0.054 1.693,0.008 4.111,0.276 4.932,1.369 2.101,2.801 -0.132,4.163 -2.543,5.565 -6.553,3.81 -9.557,9.719 -8.523,17.22 0.946,6.864 5.015,11.701 11.646,13.652 6.909,2.032 13.227,0.554 18.142,-5.108 7.192,-8.282 4.615,-21.538 -5.391,-26.283 -2.879,-1.365 -3.98,-2.768 -3.809,-5.893 0.282,-5.161 -2.486,-8.622 -7.573,-8.677 -23.128,-0.249 -46.26,-0.233 -69.39,-0.103 -4.447,0.026 -6.949,3.06 -7.359,7.408 -0.359,3.801 -0.411,7.642 -0.423,11.466 -0.043,14.997 -0.018,29.994 -0.018,44.99" /></g><g
       transform="translate(766.4365,360.1406)"
       id="g36"><path
         id="path38"
         style="fill:#b6121b;fill-opacity:1;fill-rule:nonzero;stroke:none"
         d="m 0,0 c -4.65,0 -9.303,-0.087 -13.95,0.028 -3.554,0.089 -5.238,-1.461 -5.212,-5.016 0.039,-5.315 0.067,-10.63 -0.014,-15.944 -0.054,-3.506 1.458,-5.242 5.036,-5.227 9.466,0.039 18.934,0.024 28.401,0.008 3.237,-0.006 4.944,1.406 4.907,4.797 -0.06,5.48 -0.075,10.962 0.01,16.442 0.056,3.658 -1.727,5.027 -5.227,4.94 C 9.303,-0.086 4.65,0.001 0,0 m -48.999,-36.104 c -10e-4,15.658 -0.021,31.315 0.006,46.972 0.019,11.675 6.264,17.957 17.855,17.967 20.822,0.019 41.643,0.023 62.463,-0.002 10.785,-0.013 17.6,-6.542 17.635,-17.332 0.103,-32.147 0.053,-64.295 0.026,-96.442 -0.005,-5.413 -1.405,-6.806 -6.763,-6.872 -5.496,-0.068 -10.996,0.087 -16.49,-0.044 -4.482,-0.108 -6.329,1.965 -6.273,6.35 0.101,7.993 -0.081,15.991 0.065,23.985 0.059,3.229 -0.657,4.836 -4.375,4.76 -10.323,-0.21 -20.654,-0.154 -30.979,-0.024 -2.995,0.038 -4.112,-0.916 -4.054,-3.995 0.159,-8.326 -0.051,-16.658 0.089,-24.984 0.072,-4.262 -1.815,-6.115 -5.97,-6.074 -5.496,0.055 -10.994,-0.032 -16.49,0.023 -5.619,0.056 -6.723,1.145 -6.733,6.742 -0.033,16.323 -0.012,32.647 -0.012,48.97" /></g><g
       transform="translate(829.9248,328.6982)"
       id="g40"><path
         id="path42"
         style="fill:#b6121b;fill-opacity:1;fill-rule:nonzero;stroke:none"
         d="m 0,0 c -0.006,13.826 -0.062,27.653 0.011,41.479 0.066,12.503 6.31,18.692 18.825,18.715 20.322,0.038 40.645,0.048 60.968,-0.003 11.691,-0.028 18.3,-6.496 18.514,-18.146 0.135,-7.327 -0.097,-14.661 0.073,-21.987 0.106,-4.592 -2.106,-6.28 -6.388,-6.221 -5.496,0.074 -10.995,0.073 -16.491,-0.002 -4.296,-0.058 -6.685,1.589 -6.18,6.238 0.107,0.988 0.017,1.997 0.013,2.996 -0.031,7.276 -0.796,8.07 -7.989,8.087 -8.495,0.021 -16.993,-0.12 -25.485,0.052 -4.554,0.092 -6.656,-1.4 -6.597,-6.332 0.201,-16.656 0.193,-33.316 0.002,-49.973 -0.055,-4.831 1.747,-6.441 6.488,-6.299 9.153,0.275 18.323,0.213 27.481,0.022 4.222,-0.088 6.3,1.441 6.1,5.758 -0.622,13.425 1.194,11.137 11.978,11.291 3.83,0.054 7.663,-0.05 11.493,0.021 3.233,0.06 5.152,-1.308 5.16,-4.641 0.02,-8.993 0.329,-18.009 -0.198,-26.974 C 97.282,-54.361 90.554,-60.25 82.084,-60.284 60.096,-60.373 38.106,-60.375 16.118,-60.286 6.676,-60.248 0.186,-53.33 0.053,-42.977 -0.131,-28.653 0.007,-14.325 0,0" /></g><g
       transform="translate(605.4375,328.6387)"
       id="g44"><path
         id="path46"
         style="fill:#b6121b;fill-opacity:1;fill-rule:nonzero;stroke:none"
         d="m 0,0 c 0,17.992 0.109,35.985 -0.074,53.977 -0.048,4.736 1.58,6.701 6.382,6.472 5.318,-0.254 10.671,-0.273 15.987,0.006 4.839,0.254 6.6,-1.903 6.564,-6.48 -0.089,-11.329 0.118,-22.661 -0.104,-33.985 -0.076,-3.869 1.028,-5.252 5.025,-5.154 9.99,0.244 19.992,0.215 29.984,0.013 3.834,-0.078 5.242,1.045 5.153,5.072 -0.247,11.323 0.044,22.657 -0.146,33.982 -0.077,4.646 1.496,6.771 6.362,6.549 5.653,-0.259 11.328,-0.149 16.99,-0.034 3.844,0.079 5.408,-1.702 5.405,-5.436 -0.032,-36.65 -0.033,-73.301 0,-109.953 0.003,-3.827 -1.916,-5.452 -5.533,-5.461 -5.664,-0.014 -11.33,0.068 -16.992,-0.033 -4.378,-0.077 -6.302,1.725 -6.23,6.286 0.184,11.658 -0.089,23.325 0.141,34.983 0.077,3.941 -1.172,5.218 -5.093,5.134 -10.157,-0.218 -20.324,-0.185 -30.484,-0.014 -3.459,0.057 -4.624,-1.071 -4.568,-4.574 0.18,-11.493 0.096,-22.989 0.05,-34.484 -0.023,-6.048 -1.284,-7.261 -7.373,-7.304 -4.998,-0.034 -9.999,0.11 -14.992,-0.037 -4.609,-0.136 -6.574,1.672 -6.525,6.498 C 0.108,-35.985 0,-17.992 0,0" /></g><g
       transform="translate(942.9189,329.1289)"
       id="g48"><path
         id="path50"
         style="fill:#b6121b;fill-opacity:1;fill-rule:nonzero;stroke:none"
         d="m 0,0 c -0.002,17.32 -0.02,34.642 0.008,51.963 0.011,6.885 0.971,7.821 7.764,7.847 4.998,0.019 9.995,-0.068 14.99,0.021 4.146,0.074 6.034,-1.627 5.975,-5.972 -0.158,-11.656 0.083,-23.318 -0.129,-34.972 -0.068,-3.73 1.068,-4.93 4.812,-4.818 8.319,0.249 16.656,0.224 24.977,0.007 3.313,-0.087 4.6,1.128 5.419,4.263 3.068,11.747 6.614,23.37 9.617,35.133 1.182,4.632 3.236,6.82 8.261,6.43 5.133,-0.399 10.323,-0.196 15.482,-0.06 4.097,0.109 5.897,-1.742 5.491,-5.741 -0.283,-2.794 -0.4,-5.659 -1.127,-8.346 -3.777,-13.97 -7.859,-27.858 -11.505,-41.859 -0.748,-2.872 -0.72,-6.275 0.03,-9.151 3.65,-14.002 7.666,-27.908 11.55,-41.849 0.313,-1.121 0.701,-2.232 0.885,-3.375 1.414,-8.828 0.095,-10.373 -8.779,-10.377 -4.163,-0.002 -8.339,0.194 -12.488,-0.052 -4.412,-0.263 -6.655,1.511 -7.778,5.834 -3.138,12.072 -6.722,24.028 -9.879,36.095 -0.866,3.308 -2.279,4.62 -5.795,4.509 -7.82,-0.246 -15.661,-0.281 -23.477,0.008 -4.253,0.156 -5.853,-0.976 -5.725,-5.539 0.321,-11.482 -0.048,-22.983 0.177,-34.471 0.096,-4.875 -1.985,-6.565 -6.565,-6.42 -5.158,0.163 -10.326,-0.012 -15.488,0.05 -5.499,0.069 -6.664,1.202 -6.681,6.88 C -0.031,-35.976 0.002,-17.987 0,0" /></g><g
       transform="translate(449.3755,392.3535)"
       id="g52"><path
         id="path54"
         style="fill:#b6121b;fill-opacity:1;fill-rule:nonzero;stroke:none"
         d="m 0,0 c 4.504,0.068 8.283,-3.545 8.428,-8.057 0.142,-4.454 -3.498,-8.291 -8.004,-8.435 -4.661,-0.15 -8.83,3.777 -8.761,8.252 C -8.27,-3.839 -4.454,-0.067 0,0" /></g><g
       transform="translate(525.0176,375.8672)"
       id="g56"><path
         id="path58"
         style="fill:#b6121b;fill-opacity:1;fill-rule:nonzero;stroke:none"
         d="m 0,0 c -4.59,-0.012 -8.164,3.592 -8.137,8.207 0.026,4.552 3.736,8.345 8.144,8.328 C 4.396,16.518 8.114,12.698 8.124,8.197 8.133,3.57 4.606,0.012 0,0" /></g><g
       transform="translate(328.7729,400.0439)"
       id="g60"><path
         id="path62"
         style="fill:#b6121b;fill-opacity:1;fill-rule:nonzero;stroke:none"
         d="m 0,0 c -4.315,-0.002 -8.184,3.935 -8.23,8.375 -0.046,4.407 3.791,8.442 8.104,8.522 C 4.376,16.981 8.442,12.823 8.362,8.216 8.285,3.783 4.437,0.002 0,0" /></g><g
       transform="translate(413.9746,300.8184)"
       id="g64"><path
         id="path66"
         style="fill:#b6121b;fill-opacity:1;fill-rule:nonzero;stroke:none"
         d="m 0,0 c 0.107,-4.441 -3.593,-8.212 -8.139,-8.292 -4.595,-0.082 -8.441,3.429 -8.615,7.864 -0.179,4.548 3.802,8.597 8.457,8.599 C -3.793,8.174 -0.109,4.545 0,0" /></g></g></g><g
   id="text70"
   style="font-variant:normal;font-weight:normal;font-stretch:normal;font-size:36px;font-family:'Brandon Grotesque Regular';-inkscape-font-specification:BrandonGrotesque-Regular;writing-mode:lr-tb;fill:#ffffff;fill-opacity:1;fill-rule:nonzero;stroke:none;stroke-width:0;stroke-miterlimit:4;stroke-dasharray:none;stroke-opacity:1"
   transform="matrix(0.99521111,0,0,-1,601.8262,218.3428)"
   aria-label="LANCASTER UNIVERSITY"><path
     id="path2337"
     style="fill:#ffffff"
     d="M 3.5332031,-26.244141 H 7.0839844 V -2.9882813 H 19.863281 V 0 H 3.5332031 Z" /><path
     id="path2339"
     style="fill:#ffffff"
     d="M 32.896687,-22.746094 28.08028,-9.6855469 h 9.650391 z m -2.003907,-3.498047 h 4.025391 L 44.920124,0 H 41.228718 L 38.838093,-6.7324219 H 27.008015 L 24.61739,0 h -3.744141 z" /><path
     id="path2341"
     style="fill:#ffffff"
     d="m 49.793201,-26.244141 h 4.78125 L 66.21117,-4.2890625 V -26.244141 h 3.445313 V 0 h -4.78125 L 53.238514,-21.955078 V 0 h -3.445313 z" /><path
     id="path2343"
     style="fill:#ffffff"
     d="m 99.10955,-24.222656 v 3.74414 q -1.792968,-1.669921 -3.832031,-2.496093 -2.021484,-0.826172 -4.30664,-0.826172 -4.5,0 -6.890625,2.759765 -2.390625,2.742188 -2.390625,7.945313 0,5.1855468 2.390625,7.9453124 2.390625,2.7421875 6.890625,2.7421875 2.285156,0 4.30664,-0.8261719 2.039063,-0.8261719 3.832031,-2.4960937 v 3.7089843 q -1.863281,1.26562503 -3.955078,1.89843753 -2.074218,0.63281249 -4.394531,0.63281249 -5.958984,0 -9.386719,-3.63867192 -3.427734,-3.6562499 -3.427734,-9.9667967 0,-6.328125 3.427734,-9.966797 3.427735,-3.65625 9.386719,-3.65625 2.355469,0 4.429688,0.632813 2.091796,0.615234 3.919921,1.863281 z" /><path
     id="path2345"
     style="fill:#ffffff"
     d="m 115.48069,-22.746094 -4.81641,13.0605471 h 9.65039 z m -2.00391,-3.498047 h 4.02539 L 127.50413,0 h -3.69141 L 121.4221,-6.7324219 H 109.59202 L 107.20139,0 h -3.74414 z" /><path
     id="path2347"
     style="fill:#ffffff"
     d="m 148.10962,-25.382812 v 3.46289 q -2.02149,-0.966797 -3.81445,-1.441406 -1.79297,-0.474609 -3.46289,-0.474609 -2.9004,0 -4.48243,1.125 -1.56445,1.125 -1.56445,3.199218 0,1.740235 1.03711,2.636719 1.05469,0.878906 3.97266,1.423828 l 2.14453,0.439453 q 3.97265,0.75586 5.85351,2.671875 1.89844,1.898438 1.89844,5.0976565 0,3.8144531 -2.56641,5.7832031 -2.54882,1.96875002 -7.48828,1.96875002 -1.86328,0 -3.97265,-0.421875 -2.0918,-0.421875 -4.3418,-1.24804682 v -3.65625 q 2.16211,1.2128906 4.23633,1.8281249 2.07422,0.6152344 4.07812,0.6152344 3.04102,0 4.69336,-1.1953125 1.65235,-1.1953125 1.65235,-3.4101562 0,-1.9335938 -1.19532,-3.0234374 -1.17773,-1.089844 -3.88476,-1.634766 l -2.16211,-0.421875 q -3.97266,-0.791015 -5.74805,-2.478515 -1.77539,-1.6875 -1.77539,-4.69336 0,-3.480468 2.44336,-5.484375 2.46094,-2.003906 6.76758,-2.003906 1.8457,0 3.76172,0.333984 1.91601,0.333985 3.91992,1.001954 z" /><path
     id="path2349"
     style="fill:#ffffff"
     d="m 149.72653,-26.244141 h 22.20117 v 2.988282 h -9.3164 V 0 h -3.56836 v -23.255859 h -9.31641 z" /><path
     id="path2351"
     style="fill:#ffffff"
     d="m 172.3732,-26.244141 h 16.59375 v 2.988282 h -13.04297 v 7.769531 h 12.49805 v 2.988281 h -12.49805 v 9.5097657 h 13.35938 V 0 H 172.3732 Z" /><path
     id="path2353"
     style="fill:#ffffff"
     d="m 207.93051,-12.304688 q 1.14258,0.386719 2.21485,1.652344 1.08984,1.2656252 2.17968,3.480469 L 215.92856,0 h -3.81445 l -3.35743,-6.7324219 q -1.30078,-2.6367187 -2.53125,-3.4980471 -1.21289,-0.861328 -3.32226,-0.861328 h -3.86719 V 0 h -3.55078 v -26.244141 h 8.01562 q 4.5,0 6.71485,1.88086 2.21484,1.880859 2.21484,5.677734 0,2.478516 -1.16015,4.113281 -1.14258,1.634766 -3.33985,2.267578 z m -8.89453,-11.021484 v 9.316406 h 4.46484 q 2.56641,0 3.86719,-1.177734 1.31836,-1.195312 1.31836,-3.498047 0,-2.302734 -1.31836,-3.46289 -1.30078,-1.177735 -3.86719,-1.177735 z" /><path
     id="path2355"
     style="fill:#ffffff"
     d="m 230.4689,-26.244141 h 3.56836 v 15.94336 q 0,4.2187498 1.5293,6.082031 1.5293,1.8457031 4.95703,1.8457031 3.41016,0 4.93945,-1.8457031 1.5293,-1.8632812 1.5293,-6.082031 v -15.94336 h 3.56836 v 16.3828129 q 0,5.1328125 -2.54883,7.7519531 -2.53125,2.61914062 -7.48828,2.61914062 -4.97461,0 -7.52344,-2.61914062 -2.53125,-2.6191406 -2.53125,-7.7519531 z" /><path
     id="path2357"
     style="fill:#ffffff"
     d="m 258.4492,-26.244141 h 4.78125 l 11.63672,21.9550785 V -26.244141 h 3.44531 V 0 h -4.78125 L 261.89452,-21.955078 V 0 h -3.44532 z" /><path
     id="path2359"
     style="fill:#ffffff"
     d="m 288.11319,-26.244141 h 3.55078 V 0 h -3.55078 z" /><path
     id="path2361"
     style="fill:#ffffff"
     d="m 306.83279,0 -10.01953,-26.244141 h 3.70899 l 8.31445,22.0957035 8.33203,-22.0957035 h 3.69141 L 310.85818,0 Z" /><path
     id="path2363"
     style="fill:#ffffff"
     d="m 325.7692,-26.244141 h 16.59375 v 2.988282 h -13.04297 v 7.769531 h 12.49804 v 2.988281 h -12.49804 v 9.5097657 h 13.35937 V 0 H 325.7692 Z" /><path
     id="path2365"
     style="fill:#ffffff"
     d="m 361.32651,-12.304688 q 1.14258,0.386719 2.21484,1.652344 1.08985,1.2656252 2.17969,3.480469 L 369.32455,0 h -3.81445 l -3.35742,-6.7324219 q -1.30078,-2.6367187 -2.53125,-3.4980471 -1.21289,-0.861328 -3.32227,-0.861328 h -3.86718 V 0 h -3.55078 v -26.244141 h 8.01562 q 4.5,0 6.71484,1.88086 2.21485,1.880859 2.21485,5.677734 0,2.478516 -1.16016,4.113281 -1.14258,1.634766 -3.33984,2.267578 z m -8.89453,-11.021484 v 9.316406 h 4.46484 q 2.56641,0 3.86719,-1.177734 1.31836,-1.195312 1.31836,-3.498047 0,-2.302734 -1.31836,-3.46289 -1.30078,-1.177735 -3.86719,-1.177735 z" /><path
     id="path2367"
     style="fill:#ffffff"
     d="m 390.20963,-25.382812 v 3.46289 q -2.02149,-0.966797 -3.81446,-1.441406 -1.79297,-0.474609 -3.46289,-0.474609 -2.90039,0 -4.48242,1.125 -1.56445,1.125 -1.56445,3.199218 0,1.740235 1.03711,2.636719 1.05468,0.878906 3.97265,1.423828 l 2.14453,0.439453 q 3.97266,0.75586 5.85352,2.671875 1.89844,1.898438 1.89844,5.0976565 0,3.8144531 -2.56641,5.7832031 -2.54883,1.96875002 -7.48828,1.96875002 -1.86328,0 -3.97266,-0.421875 -2.09179,-0.421875 -4.34179,-1.24804682 v -3.65625 q 2.16211,1.2128906 4.23632,1.8281249 2.07422,0.6152344 4.07813,0.6152344 3.04101,0 4.69336,-1.1953125 1.65234,-1.1953125 1.65234,-3.4101562 0,-1.9335938 -1.19531,-3.0234374 -1.17773,-1.089844 -3.88477,-1.634766 l -2.16211,-0.421875 q -3.97265,-0.791015 -5.74804,-2.478515 -1.77539,-1.6875 -1.77539,-4.69336 0,-3.480468 2.44336,-5.484375 2.46093,-2.003906 6.76757,-2.003906 1.84571,0 3.76172,0.333984 1.91602,0.333985 3.91993,1.001954 z" /><path
     id="path2369"
     style="fill:#ffffff"
     d="m 395.46521,-26.244141 h 3.55078 V 0 h -3.55078 z" /><path
     id="path2371"
     style="fill:#ffffff"
     d="m 403.77853,-26.244141 h 22.20118 v 2.988282 H 416.6633 V 0 h -3.56836 v -23.255859 h -9.31641 z" /><path
     id="path2373"
     style="fill:#ffffff"
     d="m 424.00967,-26.244141 h 3.81446 l 7.27734,10.792969 7.22461,-10.792969 h 3.81445 l -9.28125,13.746094 V 0 h -3.56836 v -12.498047 z" /></g>
<g
   id="text74"
   style="font-variant:normal;font-weight:300;font-stretch:normal;font-size:34px;font-family:'Brandon Grotesque Light';-inkscape-font-specification:BrandonGrotesque-Light;writing-mode:lr-tb;fill:#ffffff;fill-opacity:1;fill-rule:nonzero;stroke:none;stroke-width:0;stroke-miterlimit:4;stroke-dasharray:none;stroke-opacity:1"
   transform="matrix(0.87767059,0,0,-1,602.1729,183.5107)"
   aria-label="ETHICAL HACKING GROUP"><path
     id="path2376"
     style="fill:#ffffff"
     d="M 4.1337891,-24.786133 H 18.145508 v 1.37793 H 5.8271484 v 9.512695 H 17.630859 v 1.344727 H 5.8271484 V -1.3447266 H 18.444336 V 0 H 4.1337891 Z" /><path
     id="path2378"
     style="fill:#ffffff"
     d="m 22.77907,-24.786133 h 19.274414 v 1.361328 H 33.254656 V 0 H 31.577898 V -23.424805 H 22.77907 Z" /><path
     id="path2380"
     style="fill:#ffffff"
     d="m 43.913788,-24.786133 h 1.676758 v 10.890625 H 59.45285 v -10.890625 h 1.676758 V 0 H 59.45285 V -12.550781 H 45.590546 V 0 h -1.676758 z" /><path
     id="path2382"
     style="fill:#ffffff"
     d="m 71.267189,-24.786133 h 1.726563 V 0 h -1.726563 z" /><path
     id="path2384"
     style="fill:#ffffff"
     d="m 99.587463,-22.727539 v 1.90918 q -1.693359,-1.543946 -3.602539,-2.291016 -1.925781,-0.763672 -4.083984,-0.763672 -4.681641,0 -7.155273,2.955078 -2.490235,2.955078 -2.490235,8.549805 0,5.5947265 2.490235,8.5664062 2.473632,2.97167967 7.155273,2.97167967 2.158203,0 4.083984,-0.76367187 1.90918,-0.7802734 3.602539,-2.3242188 v 2.0087891 q -1.759765,1.19531251 -3.735351,1.79296876 -1.958985,0.59765625 -4.150391,0.59765625 -5.21289,0 -8.201172,-3.43652341 -2.988281,-3.453125 -2.988281,-9.4130859 0,-5.976563 2.988281,-9.413086 2.988282,-3.453125 8.201172,-3.453125 2.22461,0 4.183594,0.630859 1.975586,0.614258 3.702148,1.875977 z" /><path
     id="path2386"
     style="fill:#ffffff"
     d="m 115.34009,-23.109375 -5.3125,13.9453125 h 10.54199 z m -1.0625,-1.676758 h 2.1748 L 125.93188,0 h -1.89257 l -2.95508,-7.7861328 H 109.51294 L 106.57446,0 h -1.75976 z" /><path
     id="path2388"
     style="fill:#ffffff"
     d="m 131.85439,-24.786133 h 1.66016 v 23.4248049 h 12.06934 V 0 h -13.7295 z" /><path
     id="path2390"
     style="fill:#ffffff"
     d="m 159.24179,-24.786133 h 1.67676 v 10.890625 h 13.8623 v -10.890625 h 1.67676 V 0 h -1.67676 v -12.550781 h -13.8623 V 0 h -1.67676 z" /><path
     id="path2392"
     style="fill:#ffffff"
     d="m 194.01608,-23.109375 -5.3125,13.9453125 h 10.54199 z m -1.0625,-1.676758 h 2.17481 L 204.60788,0 h -1.89258 l -2.95508,-7.7861328 H 188.18893 L 185.25046,0 h -1.75977 z" /><path
     id="path2394"
     style="fill:#ffffff"
     d="m 228.14146,-22.727539 v 1.90918 q -1.69336,-1.543946 -3.60253,-2.291016 -1.92579,-0.763672 -4.08399,-0.763672 -4.68164,0 -7.15527,2.955078 -2.49024,2.955078 -2.49024,8.549805 0,5.5947265 2.49024,8.5664062 2.47363,2.97167967 7.15527,2.97167967 2.1582,0 4.08399,-0.76367187 1.90917,-0.7802734 3.60253,-2.3242188 v 2.0087891 q -1.75976,1.19531251 -3.73535,1.79296876 -1.95898,0.59765625 -4.15039,0.59765625 -5.21289,0 -8.20117,-3.43652341 -2.98828,-3.453125 -2.98828,-9.4130859 0,-5.976563 2.98828,-9.413086 2.98828,-3.453125 8.20117,-3.453125 2.22461,0 4.1836,0.630859 1.97558,0.614258 3.70214,1.875977 z" /><path
     id="path2396"
     style="fill:#ffffff"
     d="m 238.23296,-24.786133 h 1.64355 v 10.674805 l 11.35547,-10.674805 h 2.20801 L 241.12163,-13.181641 254.25346,0 h -2.1748 L 239.87651,-12.235352 V 0 h -1.64355 z" /><path
     id="path2398"
     style="fill:#ffffff"
     d="m 258.09718,-24.786133 h 1.72657 V 0 h -1.72657 z" /><path
     id="path2400"
     style="fill:#ffffff"
     d="m 268.63718,-24.786133 h 2.45703 L 283.11374,-2.125 v -22.661133 h 1.66016 V 0 h -2.35743 L 270.33054,-22.810547 V 0 h -1.69336 z" /><path
     id="path2402"
     style="fill:#ffffff"
     d="m 313.51797,-2.1083984 v -8.6826176 h -6.32519 v -1.361328 h 7.96875 V -1.3115234 Q 313.38516,-0.43164063 311.26016,0 q -2.125,0.44824219 -4.54883,0.48144531 -5.3789,0 -8.40039,-3.40332031 -3.03808,-3.3867187 -3.03808,-9.446289 0,-6.076172 3.03808,-9.479492 3.02149,-3.386719 8.40039,-3.386719 2.22461,0 4.2002,0.448242 1.99219,0.481446 3.65234,1.411133 v 1.610352 q -1.67675,-0.929688 -3.58593,-1.411133 -1.89258,-0.464844 -3.98438,-0.464844 -4.99707,0 -7.50391,2.838867 -2.50683,2.822266 -2.50683,8.433594 0,5.6943359 2.50683,8.5664062 2.50684,2.88867186 7.50391,2.88867186 2.04199,0 3.65234,-0.28222656 1.59375,-0.2988281 2.87207,-0.9130859 z" /><path
     id="path2404"
     style="fill:#ffffff"
     d="m 349.55798,-2.1083984 v -8.6826176 h -6.32519 v -1.361328 h 7.96875 V -1.3115234 Q 349.42517,-0.43164063 347.30017,0 q -2.125,0.44824219 -4.54883,0.48144531 -5.3789,0 -8.40039,-3.40332031 -3.03808,-3.3867187 -3.03808,-9.446289 0,-6.076172 3.03808,-9.479492 3.02149,-3.386719 8.40039,-3.386719 2.22461,0 4.2002,0.448242 1.99219,0.481446 3.65234,1.411133 v 1.610352 q -1.67676,-0.929688 -3.58594,-1.411133 -1.89257,-0.464844 -3.98437,-0.464844 -4.99707,0 -7.50391,2.838867 -2.50683,2.822266 -2.50683,8.433594 0,5.6943359 2.50683,8.5664062 2.50684,2.88867186 7.50391,2.88867186 2.04199,0 3.65234,-0.28222656 1.59375,-0.2988281 2.87207,-0.9130859 z" /><path
     id="path2406"
     style="fill:#ffffff"
     d="m 369.82956,-11.621094 q 1.0293,0.365235 1.99219,1.560547 0.68066,0.8632814 1.94238,3.2871095 L 377.23386,0 h -1.77637 l -3.53613,-6.8066406 q -1.37793,-2.6728516 -2.63965,-3.5361324 -1.29492,-0.863282 -3.50293,-0.863282 h -4.49903 V 0 h -1.66015 v -24.786133 h 6.72363 q 3.80176,0 5.67774,1.776367 1.87597,1.776368 1.87597,5.362305 0,2.307617 -0.97949,3.884766 -0.92969,1.543945 -3.08789,2.141601 z m -8.54981,-11.803711 v 10.840821 h 5.47852 q 2.65625,0 4.01758,-1.37793 1.36133,-1.37793 1.36133,-4.067383 0,-2.672851 -1.36133,-4.03418 -1.36133,-1.361328 -4.01758,-1.361328 z" /><path
     id="path2408"
     style="fill:#ffffff"
     d="m 399.09146,-20.834961 q -2.39062,-3.104492 -6.45801,-3.104492 -4.06738,0 -6.47461,3.104492 -2.39062,3.104492 -2.39062,8.466797 0,5.3291015 2.39062,8.4335937 2.40723,3.10449217 6.47461,3.10449217 4.06739,0 6.45801,-3.10449217 2.37402,-3.1044922 2.37402,-8.4335937 0,-5.362305 -2.37402,-8.466797 z m -6.45801,-4.399414 q 4.81446,0 7.70313,3.486328 2.88867,3.50293 2.88867,9.379883 0,5.8603515 -2.88867,9.3466796 -2.88867,3.50292971 -7.70313,3.50292971 -4.83105,0 -7.73632,-3.48632811 -2.88868,-3.4863281 -2.88868,-9.3632812 0,-5.876953 2.88868,-9.379883 2.90527,-3.486328 7.73632,-3.486328 z" /><path
     id="path2410"
     style="fill:#ffffff"
     d="m 413.05975,-24.786133 h 1.66016 v 15.0576174 q 0,4.7148437 1.66016,6.790039 1.64355,2.05859379 5.3291,2.05859379 3.66894,0 5.3125,-2.05859379 1.66015,-2.0751953 1.66015,-6.790039 V -24.786133 h 1.66016 v 15.4726564 q 0,4.8476563 -2.19141,7.3212891 -2.1748,2.47363281 -6.4414,2.47363281 -4.28321,0 -6.45801,-2.47363281 -2.19141,-2.4736328 -2.19141,-7.3212891 z" /><path
     id="path2412"
     style="fill:#ffffff"
     d="m 441.24854,-23.408203 v 11.388672 h 5.09667 q 2.77247,0 4.28321,-1.477539 1.52734,-1.477539 1.52734,-4.233399 0,-2.706054 -1.52734,-4.200195 -1.51074,-1.477539 -4.28321,-1.477539 z m -1.66016,-1.37793 h 6.75683 q 3.70215,0 5.61133,1.792969 1.89258,1.792969 1.89258,5.262695 0,3.486328 -1.89258,5.279297 -1.90918,1.792969 -5.61133,1.792969 h -5.09667 V 0 h -1.66016 z" /></g>
</g></svg>
