<?xml version="1.0" encoding="UTF-8" standalone="no"?>
<!-- Created with Inkscape (http://www.inkscape.org/) -->

<svg
   xmlns:dc="http://purl.org/dc/elements/1.1/"
   xmlns:cc="http://creativecommons.org/ns#"
   xmlns:rdf="http://www.w3.org/1999/02/22-rdf-syntax-ns#"
   xmlns:svg="http://www.w3.org/2000/svg"
   xmlns="http://www.w3.org/2000/svg"
   xmlns:sodipodi="http://sodipodi.sourceforge.net/DTD/sodipodi-0.dtd"
   xmlns:inkscape="http://www.inkscape.org/namespaces/inkscape"
   version="1.1"
   id="svg2"
   xml:space="preserve"
   width="1059.0059"
   height="672.15863"
   viewBox="0 0 1059.0059 672.15863"
   sodipodi:docname="luhack_logo.svg"
   inkscape:version="0.92.4 5da689c313, 2019-01-14"><metadata
     id="metadata8"><rdf:RDF><cc:Work
         rdf:about=""><dc:format>image/svg+xml</dc:format><dc:type
           rdf:resource="http://purl.org/dc/dcmitype/StillImage" /><dc:title></dc:title></cc:Work></rdf:RDF></metadata><defs
     id="defs6"><clipPath
       clipPathUnits="userSpaceOnUse"
       id="clipPath18"><path
         d="M 0,768 H 1366 V 0 H 0 Z"
         id="path16"
         inkscape:connector-curvature="0" /></clipPath></defs><sodipodi:namedview
     pagecolor="#ffffff"
     bordercolor="#666666"
     borderopacity="1"
     objecttolerance="10"
     gridtolerance="10"
     guidetolerance="10"
     inkscape:pageopacity="0"
     inkscape:pageshadow="2"
     inkscape:window-width="2411"
     inkscape:window-height="1683"
     id="namedview4"
     showgrid="false"
     inkscape:zoom="3.2854843"
     inkscape:cx="710.47155"
     inkscape:cy="255.64152"
     inkscape:window-x="2468"
     inkscape:window-y="59"
     inkscape:window-maximized="0"
     inkscape:current-layer="g10" /><g
     id="g10"
     inkscape:groupmode="layer"
     inkscape:label="LUHack Logo [Byline]"
     transform="matrix(1.3333333,0,0,-1.3333333,-363.14589,846.17595)"><g
       id="g5220"
       style="fill:none;stroke:#f4ffff;stroke-width:24.97500038;stroke-miterlimit:4;stroke-dasharray:none;stroke-opacity:1"
       transform="translate(8.2176667,5e-4)"><g
         clip-path="url(#clipPath18)"
         id="g5218"
         style="fill:none;stroke:#f4ffff;stroke-width:24.97500038;stroke-miterlimit:4;stroke-dasharray:none;stroke-opacity:1"><g
           transform="translate(324,334.498)"
           id="g5172"
           style="fill:none;stroke:#f4ffff;stroke-width:24.97500038;stroke-miterlimit:4;stroke-dasharray:none;stroke-opacity:1"><path
             inkscape:connector-curvature="0"
             id="path5170"
             style="fill:none;fill-opacity:1;fill-rule:nonzero;stroke:#f4ffff;stroke-width:24.97500038;stroke-miterlimit:4;stroke-dasharray:none;stroke-opacity:1"
             d="m 0,0 c 0,-14.996 -0.026,-29.993 0.018,-44.989 0.011,-3.824 0.064,-7.665 0.422,-11.467 0.411,-4.348 2.913,-7.382 7.36,-7.407 23.13,-0.131 46.262,-0.147 69.39,0.102 5.086,0.055 7.854,3.516 7.573,8.677 -0.171,3.125 0.93,4.528 3.808,5.894 10.007,4.745 12.583,18.001 5.392,26.283 -4.915,5.661 -11.234,7.139 -18.143,5.107 -6.631,-1.951 -10.699,-6.788 -11.645,-13.652 -1.034,-7.501 1.97,-13.409 8.523,-17.22 2.41,-1.401 4.644,-2.764 2.542,-5.564 -0.821,-1.094 -3.238,-1.362 -4.931,-1.369 -18.163,-0.094 -36.325,-0.07 -54.487,-0.055 -6.712,0.005 -6.982,0.273 -6.984,7.107 -0.012,33.491 0.056,66.984 -0.094,100.475 -0.016,3.607 0.875,5.546 4.242,7.24 7.295,3.671 10.479,11.39 8.532,18.945 -1.952,7.572 -8.458,12.498 -16.582,12.555 -8.133,0.057 -14.79,-4.866 -16.686,-12.338 -1.933,-7.616 1.196,-15.331 8.335,-19.08 2.887,-1.516 3.492,-3.31 3.473,-6.258 C -0.059,35.325 0,17.662 0,0 m 120.494,-11.945 c 0,-13.327 -0.135,-26.657 0.039,-39.982 0.157,-12.013 2.439,-14.127 14.485,-14.399 0.333,-0.008 0.666,-0.004 0.999,-0.004 18.825,0 37.65,-0.033 56.474,0.013 10.829,0.026 13.496,2.766 13.503,13.713 0.017,26.989 0.044,53.976 -0.048,80.963 -0.01,2.934 0.564,4.734 3.463,6.262 7.025,3.705 10.213,12.124 8.046,19.69 -2.162,7.548 -9.256,12.506 -17.434,12.183 -7.506,-0.297 -13.926,-5.706 -15.622,-13.163 -1.763,-7.749 1.876,-15.406 9.453,-18.987 2.481,-1.173 3.379,-2.469 3.37,-5.19 -0.097,-26.821 -0.129,-53.642 -0.002,-80.463 0.023,-4.812 -1.867,-6.317 -6.549,-6.267 -18.156,0.192 -36.316,0.067 -54.474,0.084 -6.087,0.006 -7,0.822 -7.01,6.87 -0.046,26.488 10e-4,52.976 -0.058,79.464 -0.005,2.558 0.454,4.107 3.19,5.3 7.958,3.469 11.483,10.791 9.812,19.179 -1.456,7.312 -8.018,12.864 -15.569,13.172 -8.001,0.327 -15.203,-4.442 -17.438,-11.549 -2.461,-7.822 0.522,-16.34 7.76,-20.208 3.107,-1.66 3.661,-3.658 3.639,-6.7 -0.096,-13.327 -0.041,-26.654 -0.029,-39.981 M -47.371,37.737 c 0.745,20.054 4.023,39.692 9.322,59.041 1.223,4.468 3.258,7.492 7.508,9.728 89.932,47.315 179.699,47.242 269.296,-0.782 2.35,-1.26 4.898,-3.839 5.571,-6.292 21.989,-80.087 10.673,-154.448 -39.971,-221.233 -24.541,-32.363 -56.585,-55.105 -95.419,-67.845 -1.368,-0.448 -2.626,-1.227 -3.936,-1.852 h -2 c -1.525,0.615 -3.019,1.328 -4.58,1.832 -18.823,6.079 -36.439,14.684 -52.283,26.485 -60.055,44.736 -89.116,105.711 -93.368,179.529 -0.047,7.13 -0.094,14.259 -0.14,21.389" /></g><g
           transform="translate(306.9004,491.1904)"
           id="g5176"
           style="fill:none;stroke:#f4ffff;stroke-width:24.97500038;stroke-miterlimit:4;stroke-dasharray:none;stroke-opacity:1"><path
             inkscape:connector-curvature="0"
             id="path5174"
             style="fill:none;fill-opacity:1;fill-rule:nonzero;stroke:#f4ffff;stroke-width:24.97500038;stroke-miterlimit:4;stroke-dasharray:none;stroke-opacity:1"
             d="m 0,0 c -0.87,15.612 0.638,34.513 7.49,52.858 17.231,46.135 62.526,77.792 111.81,78.093 33.718,0.206 62.768,-11.424 86.59,-34.927 21.246,-20.962 33.62,-46.651 35.265,-76.766 0.845,-15.445 0.53,-30.953 0.878,-46.429 0.092,-4.04 -0.918,-4.688 -4.9,-3.338 -17.161,5.819 -34.432,11.324 -51.736,16.711 -3.048,0.949 -4.452,2.175 -4.345,5.467 0.193,5.991 0.061,11.992 0.046,17.988 -0.082,33.222 -26.42,60.108 -59.647,60.894 C 92.195,71.243 65.149,48.325 61.255,18.948 60.102,10.25 60.314,1.347 60.291,-7.464 60.28,-11.275 59.023,-12.872 55.3,-14.019 38.299,-19.252 21.376,-24.755 4.534,-30.48 0.605,-31.815 -0.1,-30.751 -0.04,-27.164 0.089,-19.337 0,-11.507 0,0" /></g><g
           transform="translate(525.0176,375.8672)"
           id="g5180"
           style="fill:none;stroke:#f4ffff;stroke-width:24.97500038;stroke-miterlimit:4;stroke-dasharray:none;stroke-opacity:1"><path
             inkscape:connector-curvature="0"
             id="path5178"
             style="fill:none;fill-opacity:1;fill-rule:nonzero;stroke:#f4ffff;stroke-width:24.97500038;stroke-miterlimit:4;stroke-dasharray:none;stroke-opacity:1"
             d="M 0,0 C 4.606,0.012 8.133,3.57 8.124,8.197 8.114,12.698 4.396,16.518 0.007,16.535 -4.401,16.552 -8.111,12.759 -8.137,8.207 -8.164,3.592 -4.59,-0.012 0,0 m -75.642,16.486 c -4.454,-0.067 -8.27,-3.839 -8.337,-8.239 -0.069,-4.476 4.1,-8.402 8.761,-8.253 4.506,0.145 8.146,3.982 8.004,8.436 -0.145,4.511 -3.924,8.124 -8.428,8.056 m -4.888,-69.8 c -0.006,13.327 -0.06,26.654 0.035,39.981 0.022,3.042 -0.531,5.04 -3.638,6.7 -7.239,3.868 -10.222,12.386 -7.761,20.208 2.236,7.107 9.437,11.876 17.438,11.549 7.552,-0.309 14.114,-5.86 15.57,-13.172 1.671,-8.389 -1.854,-15.71 -9.812,-19.18 -2.736,-1.192 -3.196,-2.741 -3.191,-5.299 0.06,-26.488 0.013,-52.976 0.058,-79.464 0.011,-6.048 0.923,-6.864 7.011,-6.87 18.158,-0.017 36.318,0.108 54.474,-0.084 4.681,-0.05 6.571,1.455 6.549,6.267 -0.128,26.821 -0.095,53.642 0.001,80.463 0.01,2.721 -0.889,4.017 -3.37,5.19 -7.577,3.581 -11.215,11.238 -9.453,18.987 1.696,7.456 8.117,12.866 15.623,13.163 C 7.181,25.448 14.276,20.49 16.437,12.942 18.604,5.376 15.416,-3.043 8.391,-6.748 5.492,-8.276 4.918,-10.076 4.929,-13.01 5.02,-39.997 4.993,-66.984 4.977,-93.973 4.97,-104.92 2.303,-107.66 -8.526,-107.687 c -18.825,-0.045 -37.65,-0.012 -56.474,-0.012 -0.333,0 -0.667,-0.004 -1,0.004 -12.045,0.272 -14.328,2.385 -14.484,14.399 -0.174,13.325 -0.04,26.654 -0.046,39.982" /></g><g
           transform="translate(413.9746,300.8184)"
           id="g5184"
           style="fill:none;stroke:#f4ffff;stroke-width:24.97500038;stroke-miterlimit:4;stroke-dasharray:none;stroke-opacity:1"><path
             inkscape:connector-curvature="0"
             id="path5182"
             style="fill:none;fill-opacity:1;fill-rule:nonzero;stroke:#f4ffff;stroke-width:24.97500038;stroke-miterlimit:4;stroke-dasharray:none;stroke-opacity:1"
             d="m 0,0 c -0.109,4.545 -3.793,8.174 -8.297,8.171 -4.655,-0.002 -8.636,-4.051 -8.457,-8.599 0.174,-4.435 4.02,-7.946 8.615,-7.864 C -3.593,-8.212 0.107,-4.441 0,0 m -85.202,99.226 c 4.437,0.002 8.285,3.783 8.362,8.216 0.081,4.607 -3.985,8.765 -8.488,8.681 -4.313,-0.08 -8.15,-4.116 -8.104,-8.522 0.046,-4.441 3.915,-8.378 8.23,-8.375 M -89.975,33.68 c 0,17.662 -0.059,35.325 0.058,52.986 0.019,2.947 -0.585,4.742 -3.472,6.257 -7.139,3.749 -10.268,11.465 -8.336,19.081 1.896,7.472 8.554,12.394 16.686,12.337 8.124,-0.056 14.631,-4.983 16.582,-12.554 1.947,-7.556 -1.236,-15.274 -8.532,-18.945 -3.366,-1.694 -4.258,-3.634 -4.242,-7.24 0.15,-33.492 0.083,-66.984 0.094,-100.475 0.003,-6.834 0.272,-7.103 6.984,-7.107 18.163,-0.015 36.325,-0.04 54.487,0.054 1.693,0.008 4.111,0.276 4.932,1.369 2.101,2.801 -0.132,4.163 -2.543,5.565 -6.553,3.81 -9.557,9.719 -8.523,17.22 0.946,6.864 5.015,11.701 11.646,13.652 6.909,2.032 13.227,0.554 18.142,-5.108 7.192,-8.282 4.615,-21.538 -5.391,-26.283 -2.879,-1.365 -3.98,-2.768 -3.809,-5.893 0.282,-5.161 -2.486,-8.622 -7.573,-8.677 -23.128,-0.249 -46.26,-0.233 -69.39,-0.103 -4.447,0.026 -6.949,3.06 -7.359,7.408 -0.359,3.801 -0.411,7.642 -0.423,11.466 -0.043,14.997 -0.018,29.994 -0.018,44.99" /></g><g
           transform="translate(766.4365,360.1406)"
           id="g5188"
           style="fill:none;stroke:#f4ffff;stroke-width:24.97500038;stroke-miterlimit:4;stroke-dasharray:none;stroke-opacity:1"><path
             inkscape:connector-curvature="0"
             id="path5186"
             style="fill:none;fill-opacity:1;fill-rule:nonzero;stroke:#f4ffff;stroke-width:24.97500038;stroke-miterlimit:4;stroke-dasharray:none;stroke-opacity:1"
             d="m 0,0 c -4.65,0 -9.303,-0.087 -13.95,0.028 -3.554,0.089 -5.238,-1.461 -5.212,-5.016 0.039,-5.315 0.067,-10.63 -0.014,-15.944 -0.054,-3.506 1.458,-5.242 5.036,-5.227 9.466,0.039 18.934,0.024 28.401,0.008 3.237,-0.006 4.944,1.406 4.907,4.797 -0.06,5.48 -0.075,10.962 0.01,16.442 0.056,3.658 -1.727,5.027 -5.227,4.94 C 9.303,-0.086 4.65,0.001 0,0 m -48.999,-36.104 c -10e-4,15.658 -0.021,31.315 0.006,46.972 0.019,11.675 6.264,17.957 17.855,17.967 20.822,0.019 41.643,0.023 62.463,-0.002 10.785,-0.013 17.6,-6.542 17.635,-17.332 0.103,-32.147 0.053,-64.295 0.026,-96.442 -0.005,-5.413 -1.405,-6.806 -6.763,-6.872 -5.496,-0.068 -10.996,0.087 -16.49,-0.044 -4.482,-0.108 -6.329,1.965 -6.273,6.35 0.101,7.993 -0.081,15.991 0.065,23.985 0.059,3.229 -0.657,4.836 -4.375,4.76 -10.323,-0.21 -20.654,-0.154 -30.979,-0.024 -2.995,0.038 -4.112,-0.916 -4.054,-3.995 0.159,-8.326 -0.051,-16.658 0.089,-24.984 0.072,-4.262 -1.815,-6.115 -5.97,-6.074 -5.496,0.055 -10.994,-0.032 -16.49,0.023 -5.619,0.056 -6.723,1.145 -6.733,6.742 -0.033,16.323 -0.012,32.647 -0.012,48.97" /></g><g
           transform="translate(829.9248,328.6982)"
           id="g5192"
           style="fill:none;stroke:#f4ffff;stroke-width:24.97500038;stroke-miterlimit:4;stroke-dasharray:none;stroke-opacity:1"><path
             inkscape:connector-curvature="0"
             id="path5190"
             style="fill:none;fill-opacity:1;fill-rule:nonzero;stroke:#f4ffff;stroke-width:24.97500038;stroke-miterlimit:4;stroke-dasharray:none;stroke-opacity:1"
             d="m 0,0 c -0.006,13.826 -0.062,27.653 0.011,41.479 0.066,12.503 6.31,18.692 18.825,18.715 20.322,0.038 40.645,0.048 60.968,-0.003 11.691,-0.028 18.3,-6.496 18.514,-18.146 0.135,-7.327 -0.097,-14.661 0.073,-21.987 0.106,-4.592 -2.106,-6.28 -6.388,-6.221 -5.496,0.074 -10.995,0.073 -16.491,-0.002 -4.296,-0.058 -6.685,1.589 -6.18,6.238 0.107,0.988 0.017,1.997 0.013,2.996 -0.031,7.276 -0.796,8.07 -7.989,8.087 -8.495,0.021 -16.993,-0.12 -25.485,0.052 -4.554,0.092 -6.656,-1.4 -6.597,-6.332 0.201,-16.656 0.193,-33.316 0.002,-49.973 -0.055,-4.831 1.747,-6.441 6.488,-6.299 9.153,0.275 18.323,0.213 27.481,0.022 4.222,-0.088 6.3,1.441 6.1,5.758 -0.622,13.425 1.194,11.137 11.978,11.291 3.83,0.054 7.663,-0.05 11.493,0.021 3.233,0.06 5.152,-1.308 5.16,-4.641 0.02,-8.993 0.329,-18.009 -0.198,-26.974 C 97.282,-54.361 90.554,-60.25 82.084,-60.284 60.096,-60.373 38.106,-60.375 16.118,-60.286 6.676,-60.248 0.186,-53.33 0.053,-42.977 -0.131,-28.653 0.007,-14.325 0,0" /></g><g
           transform="translate(605.4375,328.6387)"
           id="g5196"
           style="fill:none;stroke:#f4ffff;stroke-width:24.97500038;stroke-miterlimit:4;stroke-dasharray:none;stroke-opacity:1"><path
             inkscape:connector-curvature="0"
             id="path5194"
             style="fill:none;fill-opacity:1;fill-rule:nonzero;stroke:#f4ffff;stroke-width:24.97500038;stroke-miterlimit:4;stroke-dasharray:none;stroke-opacity:1"
             d="m 0,0 c 0,17.992 0.109,35.985 -0.074,53.977 -0.048,4.736 1.58,6.701 6.382,6.472 5.318,-0.254 10.671,-0.273 15.987,0.006 4.839,0.254 6.6,-1.903 6.564,-6.48 -0.089,-11.329 0.118,-22.661 -0.104,-33.985 -0.076,-3.869 1.028,-5.252 5.025,-5.154 9.99,0.244 19.992,0.215 29.984,0.013 3.834,-0.078 5.242,1.045 5.153,5.072 -0.247,11.323 0.044,22.657 -0.146,33.982 -0.077,4.646 1.496,6.771 6.362,6.549 5.653,-0.259 11.328,-0.149 16.99,-0.034 3.844,0.079 5.408,-1.702 5.405,-5.436 -0.032,-36.65 -0.033,-73.301 0,-109.953 0.003,-3.827 -1.916,-5.452 -5.533,-5.461 -5.664,-0.014 -11.33,0.068 -16.992,-0.033 -4.378,-0.077 -6.302,1.725 -6.23,6.286 0.184,11.658 -0.089,23.325 0.141,34.983 0.077,3.941 -1.172,5.218 -5.093,5.134 -10.157,-0.218 -20.324,-0.185 -30.484,-0.014 -3.459,0.057 -4.624,-1.071 -4.568,-4.574 0.18,-11.493 0.096,-22.989 0.05,-34.484 -0.023,-6.048 -1.284,-7.261 -7.373,-7.304 -4.998,-0.034 -9.999,0.11 -14.992,-0.037 -4.609,-0.136 -6.574,1.672 -6.525,6.498 C 0.108,-35.985 0,-17.992 0,0" /></g><g
           transform="translate(942.9189,329.1289)"
           id="g5200"
           style="fill:none;stroke:#f4ffff;stroke-width:24.97500038;stroke-miterlimit:4;stroke-dasharray:none;stroke-opacity:1"><path
             inkscape:connector-curvature="0"
             id="path5198"
             style="fill:none;fill-opacity:1;fill-rule:nonzero;stroke:#f4ffff;stroke-width:24.97500038;stroke-miterlimit:4;stroke-dasharray:none;stroke-opacity:1"
             d="m 0,0 c -0.002,17.32 -0.02,34.642 0.008,51.963 0.011,6.885 0.971,7.821 7.764,7.847 4.998,0.019 9.995,-0.068 14.99,0.021 4.146,0.074 6.034,-1.627 5.975,-5.972 -0.158,-11.656 0.083,-23.318 -0.129,-34.972 -0.068,-3.73 1.068,-4.93 4.812,-4.818 8.319,0.249 16.656,0.224 24.977,0.007 3.313,-0.087 4.6,1.128 5.419,4.263 3.068,11.747 6.614,23.37 9.617,35.133 1.182,4.632 3.236,6.82 8.261,6.43 5.133,-0.399 10.323,-0.196 15.482,-0.06 4.097,0.109 5.897,-1.742 5.491,-5.741 -0.283,-2.794 -0.4,-5.659 -1.127,-8.346 -3.777,-13.97 -7.859,-27.858 -11.505,-41.859 -0.748,-2.872 -0.72,-6.275 0.03,-9.151 3.65,-14.002 7.666,-27.908 11.55,-41.849 0.313,-1.121 0.701,-2.232 0.885,-3.375 1.414,-8.828 0.095,-10.373 -8.779,-10.377 -4.163,-0.002 -8.339,0.194 -12.488,-0.052 -4.412,-0.263 -6.655,1.511 -7.778,5.834 -3.138,12.072 -6.722,24.028 -9.879,36.095 -0.866,3.308 -2.279,4.62 -5.795,4.509 -7.82,-0.246 -15.661,-0.281 -23.477,0.008 -4.253,0.156 -5.853,-0.976 -5.725,-5.539 0.321,-11.482 -0.048,-22.983 0.177,-34.471 0.096,-4.875 -1.985,-6.565 -6.565,-6.42 -5.158,0.163 -10.326,-0.012 -15.488,0.05 -5.499,0.069 -6.664,1.202 -6.681,6.88 C -0.031,-35.976 0.002,-17.987 0,0" /></g><g
           transform="translate(449.3755,392.3535)"
           id="g5204"
           style="fill:none;stroke:#f4ffff;stroke-width:24.97500038;stroke-miterlimit:4;stroke-dasharray:none;stroke-opacity:1"><path
             inkscape:connector-curvature="0"
             id="path5202"
             style="fill:none;fill-opacity:1;fill-rule:nonzero;stroke:#f4ffff;stroke-width:24.97500038;stroke-miterlimit:4;stroke-dasharray:none;stroke-opacity:1"
             d="m 0,0 c 4.504,0.068 8.283,-3.545 8.428,-8.057 0.142,-4.454 -3.498,-8.291 -8.004,-8.435 -4.661,-0.15 -8.83,3.777 -8.761,8.252 C -8.27,-3.839 -4.454,-0.067 0,0" /></g><g
           transform="translate(525.0176,375.8672)"
           id="g5208"
           style="fill:none;stroke:#f4ffff;stroke-width:24.97500038;stroke-miterlimit:4;stroke-dasharray:none;stroke-opacity:1"><path
             inkscape:connector-curvature="0"
             id="path5206"
             style="fill:none;fill-opacity:1;fill-rule:nonzero;stroke:#f4ffff;stroke-width:24.97500038;stroke-miterlimit:4;stroke-dasharray:none;stroke-opacity:1"
             d="m 0,0 c -4.59,-0.012 -8.164,3.592 -8.137,8.207 0.026,4.552 3.736,8.345 8.144,8.328 C 4.396,16.518 8.114,12.698 8.124,8.197 8.133,3.57 4.606,0.012 0,0" /></g><g
           transform="translate(328.7729,400.0439)"
           id="g5212"
           style="fill:none;stroke:#f4ffff;stroke-width:24.97500038;stroke-miterlimit:4;stroke-dasharray:none;stroke-opacity:1"><path
             inkscape:connector-curvature="0"
             id="path5210"
             style="fill:none;fill-opacity:1;fill-rule:nonzero;stroke:#f4ffff;stroke-width:24.97500038;stroke-miterlimit:4;stroke-dasharray:none;stroke-opacity:1"
             d="m 0,0 c -4.315,-0.002 -8.184,3.935 -8.23,8.375 -0.046,4.407 3.791,8.442 8.104,8.522 C 4.376,16.981 8.442,12.823 8.362,8.216 8.285,3.783 4.437,0.002 0,0" /></g><g
           transform="translate(413.9746,300.8184)"
           id="g5216"
           style="fill:none;stroke:#f4ffff;stroke-width:24.97500038;stroke-miterlimit:4;stroke-dasharray:none;stroke-opacity:1"><path
             inkscape:connector-curvature="0"
             id="path5214"
             style="fill:none;fill-opacity:1;fill-rule:nonzero;stroke:#f4ffff;stroke-width:24.97500038;stroke-miterlimit:4;stroke-dasharray:none;stroke-opacity:1"
             d="m 0,0 c 0.107,-4.441 -3.593,-8.212 -8.139,-8.292 -4.595,-0.082 -8.441,3.429 -8.615,7.864 -0.179,4.548 3.802,8.597 8.457,8.599 C -3.793,8.174 -0.109,4.545 0,0" /></g></g></g><g
       id="g12"
       transform="translate(8.2179667)"><g
         id="g14"
         clip-path="url(#clipPath18)"><g
           id="g20"
           transform="translate(324,334.498)"><path
             d="m 0,0 c 0,-14.996 -0.026,-29.993 0.018,-44.989 0.011,-3.824 0.064,-7.665 0.422,-11.467 0.411,-4.348 2.913,-7.382 7.36,-7.407 23.13,-0.131 46.262,-0.147 69.39,0.102 5.086,0.055 7.854,3.516 7.573,8.677 -0.171,3.125 0.93,4.528 3.808,5.894 10.007,4.745 12.583,18.001 5.392,26.283 -4.915,5.661 -11.234,7.139 -18.143,5.107 -6.631,-1.951 -10.699,-6.788 -11.645,-13.652 -1.034,-7.501 1.97,-13.409 8.523,-17.22 2.41,-1.401 4.644,-2.764 2.542,-5.564 -0.821,-1.094 -3.238,-1.362 -4.931,-1.369 -18.163,-0.094 -36.325,-0.07 -54.487,-0.055 -6.712,0.005 -6.982,0.273 -6.984,7.107 -0.012,33.491 0.056,66.984 -0.094,100.475 -0.016,3.607 0.875,5.546 4.242,7.24 7.295,3.671 10.479,11.39 8.532,18.945 -1.952,7.572 -8.458,12.498 -16.582,12.555 -8.133,0.057 -14.79,-4.866 -16.686,-12.338 -1.933,-7.616 1.196,-15.331 8.335,-19.08 2.887,-1.516 3.492,-3.31 3.473,-6.258 C -0.059,35.325 0,17.662 0,0 m 120.494,-11.945 c 0,-13.327 -0.135,-26.657 0.039,-39.982 0.157,-12.013 2.439,-14.127 14.485,-14.399 0.333,-0.008 0.666,-0.004 0.999,-0.004 18.825,0 37.65,-0.033 56.474,0.013 10.829,0.026 13.496,2.766 13.503,13.713 0.017,26.989 0.044,53.976 -0.048,80.963 -0.01,2.934 0.564,4.734 3.463,6.262 7.025,3.705 10.213,12.124 8.046,19.69 -2.162,7.548 -9.256,12.506 -17.434,12.183 -7.506,-0.297 -13.926,-5.706 -15.622,-13.163 -1.763,-7.749 1.876,-15.406 9.453,-18.987 2.481,-1.173 3.379,-2.469 3.37,-5.19 -0.097,-26.821 -0.129,-53.642 -0.002,-80.463 0.023,-4.812 -1.867,-6.317 -6.549,-6.267 -18.156,0.192 -36.316,0.067 -54.474,0.084 -6.087,0.006 -7,0.822 -7.01,6.87 -0.046,26.488 10e-4,52.976 -0.058,79.464 -0.005,2.558 0.454,4.107 3.19,5.3 7.958,3.469 11.483,10.791 9.812,19.179 -1.456,7.312 -8.018,12.864 -15.569,13.172 -8.001,0.327 -15.203,-4.442 -17.438,-11.549 -2.461,-7.822 0.522,-16.34 7.76,-20.208 3.107,-1.66 3.661,-3.658 3.639,-6.7 -0.096,-13.327 -0.041,-26.654 -0.029,-39.981 M -47.371,37.737 c 0.745,20.054 4.023,39.692 9.322,59.041 1.223,4.468 3.258,7.492 7.508,9.728 89.932,47.315 179.699,47.242 269.296,-0.782 2.35,-1.26 4.898,-3.839 5.571,-6.292 21.989,-80.087 10.673,-154.448 -39.971,-221.233 -24.541,-32.363 -56.585,-55.105 -95.419,-67.845 -1.368,-0.448 -2.626,-1.227 -3.936,-1.852 h -2 c -1.525,0.615 -3.019,1.328 -4.58,1.832 -18.823,6.079 -36.439,14.684 -52.283,26.485 -60.055,44.736 -89.116,105.711 -93.368,179.529 -0.047,7.13 -0.094,14.259 -0.14,21.389"
             style="fill:#b5121b;fill-opacity:1;fill-rule:nonzero;stroke:none"
             id="path22"
             inkscape:connector-curvature="0" /></g><g
           id="g24"
           transform="translate(306.9004,491.1904)"><path
             d="m 0,0 c -0.87,15.612 0.638,34.513 7.49,52.858 17.231,46.135 62.526,77.792 111.81,78.093 33.718,0.206 62.768,-11.424 86.59,-34.927 21.246,-20.962 33.62,-46.651 35.265,-76.766 0.845,-15.445 0.53,-30.953 0.878,-46.429 0.092,-4.04 -0.918,-4.688 -4.9,-3.338 -17.161,5.819 -34.432,11.324 -51.736,16.711 -3.048,0.949 -4.452,2.175 -4.345,5.467 0.193,5.991 0.061,11.992 0.046,17.988 -0.082,33.222 -26.42,60.108 -59.647,60.894 C 92.195,71.243 65.149,48.325 61.255,18.948 60.102,10.25 60.314,1.347 60.291,-7.464 60.28,-11.275 59.023,-12.872 55.3,-14.019 38.299,-19.252 21.376,-24.755 4.534,-30.48 0.605,-31.815 -0.1,-30.751 -0.04,-27.164 0.089,-19.337 0,-11.507 0,0"
             style="fill:#b7b7b7;fill-opacity:1;fill-rule:nonzero;stroke:none"
             id="path26"
             inkscape:connector-curvature="0" /></g><g
           id="g28"
           transform="translate(525.0176,375.8672)"><path
             d="M 0,0 C 4.606,0.012 8.133,3.57 8.124,8.197 8.114,12.698 4.396,16.518 0.007,16.535 -4.401,16.552 -8.111,12.759 -8.137,8.207 -8.164,3.592 -4.59,-0.012 0,0 m -75.642,16.486 c -4.454,-0.067 -8.27,-3.839 -8.337,-8.239 -0.069,-4.476 4.1,-8.402 8.761,-8.253 4.506,0.145 8.146,3.982 8.004,8.436 -0.145,4.511 -3.924,8.124 -8.428,8.056 m -4.888,-69.8 c -0.006,13.327 -0.06,26.654 0.035,39.981 0.022,3.042 -0.531,5.04 -3.638,6.7 -7.239,3.868 -10.222,12.386 -7.761,20.208 2.236,7.107 9.437,11.876 17.438,11.549 7.552,-0.309 14.114,-5.86 15.57,-13.172 1.671,-8.389 -1.854,-15.71 -9.812,-19.18 -2.736,-1.192 -3.196,-2.741 -3.191,-5.299 0.06,-26.488 0.013,-52.976 0.058,-79.464 0.011,-6.048 0.923,-6.864 7.011,-6.87 18.158,-0.017 36.318,0.108 54.474,-0.084 4.681,-0.05 6.571,1.455 6.549,6.267 -0.128,26.821 -0.095,53.642 0.001,80.463 0.01,2.721 -0.889,4.017 -3.37,5.19 -7.577,3.581 -11.215,11.238 -9.453,18.987 1.696,7.456 8.117,12.866 15.623,13.163 C 7.181,25.448 14.276,20.49 16.437,12.942 18.604,5.376 15.416,-3.043 8.391,-6.748 5.492,-8.276 4.918,-10.076 4.929,-13.01 5.02,-39.997 4.993,-66.984 4.977,-93.973 4.97,-104.92 2.303,-107.66 -8.526,-107.687 c -18.825,-0.045 -37.65,-0.012 -56.474,-0.012 -0.333,0 -0.667,-0.004 -1,0.004 -12.045,0.272 -14.328,2.385 -14.484,14.399 -0.174,13.325 -0.04,26.654 -0.046,39.982"
             style="fill:#fdfdfd;fill-opacity:1;fill-rule:nonzero;stroke:none"
             id="path30"
             inkscape:connector-curvature="0" /></g><g
           id="g32"
           transform="translate(413.9746,300.8184)"><path
             d="m 0,0 c -0.109,4.545 -3.793,8.174 -8.297,8.171 -4.655,-0.002 -8.636,-4.051 -8.457,-8.599 0.174,-4.435 4.02,-7.946 8.615,-7.864 C -3.593,-8.212 0.107,-4.441 0,0 m -85.202,99.226 c 4.437,0.002 8.285,3.783 8.362,8.216 0.081,4.607 -3.985,8.765 -8.488,8.681 -4.313,-0.08 -8.15,-4.116 -8.104,-8.522 0.046,-4.441 3.915,-8.378 8.23,-8.375 M -89.975,33.68 c 0,17.662 -0.059,35.325 0.058,52.986 0.019,2.947 -0.585,4.742 -3.472,6.257 -7.139,3.749 -10.268,11.465 -8.336,19.081 1.896,7.472 8.554,12.394 16.686,12.337 8.124,-0.056 14.631,-4.983 16.582,-12.554 1.947,-7.556 -1.236,-15.274 -8.532,-18.945 -3.366,-1.694 -4.258,-3.634 -4.242,-7.24 0.15,-33.492 0.083,-66.984 0.094,-100.475 0.003,-6.834 0.272,-7.103 6.984,-7.107 18.163,-0.015 36.325,-0.04 54.487,0.054 1.693,0.008 4.111,0.276 4.932,1.369 2.101,2.801 -0.132,4.163 -2.543,5.565 -6.553,3.81 -9.557,9.719 -8.523,17.22 0.946,6.864 5.015,11.701 11.646,13.652 6.909,2.032 13.227,0.554 18.142,-5.108 7.192,-8.282 4.615,-21.538 -5.391,-26.283 -2.879,-1.365 -3.98,-2.768 -3.809,-5.893 0.282,-5.161 -2.486,-8.622 -7.573,-8.677 -23.128,-0.249 -46.26,-0.233 -69.39,-0.103 -4.447,0.026 -6.949,3.06 -7.359,7.408 -0.359,3.801 -0.411,7.642 -0.423,11.466 -0.043,14.997 -0.018,29.994 -0.018,44.99"
             style="fill:#fdfdfd;fill-opacity:1;fill-rule:nonzero;stroke:none"
             id="path34"
             inkscape:connector-curvature="0" /></g><g
           id="g36"
           transform="translate(766.4365,360.1406)"><path
             d="m 0,0 c -4.65,0 -9.303,-0.087 -13.95,0.028 -3.554,0.089 -5.238,-1.461 -5.212,-5.016 0.039,-5.315 0.067,-10.63 -0.014,-15.944 -0.054,-3.506 1.458,-5.242 5.036,-5.227 9.466,0.039 18.934,0.024 28.401,0.008 3.237,-0.006 4.944,1.406 4.907,4.797 -0.06,5.48 -0.075,10.962 0.01,16.442 0.056,3.658 -1.727,5.027 -5.227,4.94 C 9.303,-0.086 4.65,0.001 0,0 m -48.999,-36.104 c -10e-4,15.658 -0.021,31.315 0.006,46.972 0.019,11.675 6.264,17.957 17.855,17.967 20.822,0.019 41.643,0.023 62.463,-0.002 10.785,-0.013 17.6,-6.542 17.635,-17.332 0.103,-32.147 0.053,-64.295 0.026,-96.442 -0.005,-5.413 -1.405,-6.806 -6.763,-6.872 -5.496,-0.068 -10.996,0.087 -16.49,-0.044 -4.482,-0.108 -6.329,1.965 -6.273,6.35 0.101,7.993 -0.081,15.991 0.065,23.985 0.059,3.229 -0.657,4.836 -4.375,4.76 -10.323,-0.21 -20.654,-0.154 -30.979,-0.024 -2.995,0.038 -4.112,-0.916 -4.054,-3.995 0.159,-8.326 -0.051,-16.658 0.089,-24.984 0.072,-4.262 -1.815,-6.115 -5.97,-6.074 -5.496,0.055 -10.994,-0.032 -16.49,0.023 -5.619,0.056 -6.723,1.145 -6.733,6.742 -0.033,16.323 -0.012,32.647 -0.012,48.97"
             style="fill:#b6121b;fill-opacity:1;fill-rule:nonzero;stroke:none"
             id="path38"
             inkscape:connector-curvature="0" /></g><g
           id="g40"
           transform="translate(829.9248,328.6982)"><path
             d="m 0,0 c -0.006,13.826 -0.062,27.653 0.011,41.479 0.066,12.503 6.31,18.692 18.825,18.715 20.322,0.038 40.645,0.048 60.968,-0.003 11.691,-0.028 18.3,-6.496 18.514,-18.146 0.135,-7.327 -0.097,-14.661 0.073,-21.987 0.106,-4.592 -2.106,-6.28 -6.388,-6.221 -5.496,0.074 -10.995,0.073 -16.491,-0.002 -4.296,-0.058 -6.685,1.589 -6.18,6.238 0.107,0.988 0.017,1.997 0.013,2.996 -0.031,7.276 -0.796,8.07 -7.989,8.087 -8.495,0.021 -16.993,-0.12 -25.485,0.052 -4.554,0.092 -6.656,-1.4 -6.597,-6.332 0.201,-16.656 0.193,-33.316 0.002,-49.973 -0.055,-4.831 1.747,-6.441 6.488,-6.299 9.153,0.275 18.323,0.213 27.481,0.022 4.222,-0.088 6.3,1.441 6.1,5.758 -0.622,13.425 1.194,11.137 11.978,11.291 3.83,0.054 7.663,-0.05 11.493,0.021 3.233,0.06 5.152,-1.308 5.16,-4.641 0.02,-8.993 0.329,-18.009 -0.198,-26.974 C 97.282,-54.361 90.554,-60.25 82.084,-60.284 60.096,-60.373 38.106,-60.375 16.118,-60.286 6.676,-60.248 0.186,-53.33 0.053,-42.977 -0.131,-28.653 0.007,-14.325 0,0"
             style="fill:#b6121b;fill-opacity:1;fill-rule:nonzero;stroke:none"
             id="path42"
             inkscape:connector-curvature="0" /></g><g
           id="g44"
           transform="translate(605.4375,328.6387)"><path
             d="m 0,0 c 0,17.992 0.109,35.985 -0.074,53.977 -0.048,4.736 1.58,6.701 6.382,6.472 5.318,-0.254 10.671,-0.273 15.987,0.006 4.839,0.254 6.6,-1.903 6.564,-6.48 -0.089,-11.329 0.118,-22.661 -0.104,-33.985 -0.076,-3.869 1.028,-5.252 5.025,-5.154 9.99,0.244 19.992,0.215 29.984,0.013 3.834,-0.078 5.242,1.045 5.153,5.072 -0.247,11.323 0.044,22.657 -0.146,33.982 -0.077,4.646 1.496,6.771 6.362,6.549 5.653,-0.259 11.328,-0.149 16.99,-0.034 3.844,0.079 5.408,-1.702 5.405,-5.436 -0.032,-36.65 -0.033,-73.301 0,-109.953 0.003,-3.827 -1.916,-5.452 -5.533,-5.461 -5.664,-0.014 -11.33,0.068 -16.992,-0.033 -4.378,-0.077 -6.302,1.725 -6.23,6.286 0.184,11.658 -0.089,23.325 0.141,34.983 0.077,3.941 -1.172,5.218 -5.093,5.134 -10.157,-0.218 -20.324,-0.185 -30.484,-0.014 -3.459,0.057 -4.624,-1.071 -4.568,-4.574 0.18,-11.493 0.096,-22.989 0.05,-34.484 -0.023,-6.048 -1.284,-7.261 -7.373,-7.304 -4.998,-0.034 -9.999,0.11 -14.992,-0.037 -4.609,-0.136 -6.574,1.672 -6.525,6.498 C 0.108,-35.985 0,-17.992 0,0"
             style="fill:#b6121b;fill-opacity:1;fill-rule:nonzero;stroke:none"
             id="path46"
             inkscape:connector-curvature="0" /></g><g
           id="g48"
           transform="translate(942.9189,329.1289)"><path
             d="m 0,0 c -0.002,17.32 -0.02,34.642 0.008,51.963 0.011,6.885 0.971,7.821 7.764,7.847 4.998,0.019 9.995,-0.068 14.99,0.021 4.146,0.074 6.034,-1.627 5.975,-5.972 -0.158,-11.656 0.083,-23.318 -0.129,-34.972 -0.068,-3.73 1.068,-4.93 4.812,-4.818 8.319,0.249 16.656,0.224 24.977,0.007 3.313,-0.087 4.6,1.128 5.419,4.263 3.068,11.747 6.614,23.37 9.617,35.133 1.182,4.632 3.236,6.82 8.261,6.43 5.133,-0.399 10.323,-0.196 15.482,-0.06 4.097,0.109 5.897,-1.742 5.491,-5.741 -0.283,-2.794 -0.4,-5.659 -1.127,-8.346 -3.777,-13.97 -7.859,-27.858 -11.505,-41.859 -0.748,-2.872 -0.72,-6.275 0.03,-9.151 3.65,-14.002 7.666,-27.908 11.55,-41.849 0.313,-1.121 0.701,-2.232 0.885,-3.375 1.414,-8.828 0.095,-10.373 -8.779,-10.377 -4.163,-0.002 -8.339,0.194 -12.488,-0.052 -4.412,-0.263 -6.655,1.511 -7.778,5.834 -3.138,12.072 -6.722,24.028 -9.879,36.095 -0.866,3.308 -2.279,4.62 -5.795,4.509 -7.82,-0.246 -15.661,-0.281 -23.477,0.008 -4.253,0.156 -5.853,-0.976 -5.725,-5.539 0.321,-11.482 -0.048,-22.983 0.177,-34.471 0.096,-4.875 -1.985,-6.565 -6.565,-6.42 -5.158,0.163 -10.326,-0.012 -15.488,0.05 -5.499,0.069 -6.664,1.202 -6.681,6.88 C -0.031,-35.976 0.002,-17.987 0,0"
             style="fill:#b6121b;fill-opacity:1;fill-rule:nonzero;stroke:none"
             id="path50"
             inkscape:connector-curvature="0" /></g><g
           id="g52"
           transform="translate(449.3755,392.3535)"><path
             d="m 0,0 c 4.504,0.068 8.283,-3.545 8.428,-8.057 0.142,-4.454 -3.498,-8.291 -8.004,-8.435 -4.661,-0.15 -8.83,3.777 -8.761,8.252 C -8.27,-3.839 -4.454,-0.067 0,0"
             style="fill:#b6121b;fill-opacity:1;fill-rule:nonzero;stroke:none"
             id="path54"
             inkscape:connector-curvature="0" /></g><g
           id="g56"
           transform="translate(525.0176,375.8672)"><path
             d="m 0,0 c -4.59,-0.012 -8.164,3.592 -8.137,8.207 0.026,4.552 3.736,8.345 8.144,8.328 C 4.396,16.518 8.114,12.698 8.124,8.197 8.133,3.57 4.606,0.012 0,0"
             style="fill:#b6121b;fill-opacity:1;fill-rule:nonzero;stroke:none"
             id="path58"
             inkscape:connector-curvature="0" /></g><g
           id="g60"
           transform="translate(328.7729,400.0439)"><path
             d="m 0,0 c -4.315,-0.002 -8.184,3.935 -8.23,8.375 -0.046,4.407 3.791,8.442 8.104,8.522 C 4.376,16.981 8.442,12.823 8.362,8.216 8.285,3.783 4.437,0.002 0,0"
             style="fill:#b6121b;fill-opacity:1;fill-rule:nonzero;stroke:none"
             id="path62"
             inkscape:connector-curvature="0" /></g><g
           id="g64"
           transform="translate(413.9746,300.8184)"><path
             d="m 0,0 c 0.107,-4.441 -3.593,-8.212 -8.139,-8.292 -4.595,-0.082 -8.441,3.429 -8.615,7.864 -0.179,4.548 3.802,8.597 8.457,8.599 C -3.793,8.174 -0.109,4.545 0,0"
             style="fill:#b6121b;fill-opacity:1;fill-rule:nonzero;stroke:none"
             id="path66"
             inkscape:connector-curvature="0" /></g></g></g><text
       transform="matrix(0.99521111,0,0,-1,601.8262,218.3428)"
       style="font-variant:normal;font-weight:normal;font-stretch:normal;font-size:36px;font-family:'Brandon Grotesque Regular';-inkscape-font-specification:BrandonGrotesque-Regular;writing-mode:lr-tb;fill:#ffffff;fill-opacity:1;fill-rule:nonzero;stroke:none;stroke-opacity:1;stroke-width:0;stroke-miterlimit:4;stroke-dasharray:none;"
       id="text70"><tspan
         x="0 20.591999 46.259998 75.924004 103.176 128.84399 149.832 168.84 191.952 217.548 227.34 254.916 284.57999 296.53201 322.23599 345.34799 370.944 391.93201 403.884 424.07999"
         y="0"
         sodipodi:role="line"
         id="tspan68">LANCASTER UNIVERSITY</tspan></text>
<text
       transform="matrix(0.87767059,0,0,-1,602.1729,183.5107)"
       style="font-variant:normal;font-weight:300;font-stretch:normal;font-size:34px;font-family:'Brandon Grotesque Light';-inkscape-font-specification:BrandonGrotesque-Light;writing-mode:lr-tb;fill:#ffffff;fill-opacity:1;fill-rule:nonzero;stroke:none;stroke-opacity:1;stroke-width:0;stroke-miterlimit:4;stroke-dasharray:none;"
       id="text74"><tspan
         x="0 22.032 39.779999 67.150002 77.690002 103.802 127.704 146.03 155.108 182.478 206.244 232.356 253.98 264.51999 292.43399 319.396 328.474 355.436 379.23599 409.258 435.43799"
         y="0"
         sodipodi:role="line"
         id="tspan72">ETHICAL HACKING GROUP</tspan></text>
</g></svg>